<?xml version="1.0" encoding="utf-8"?>
<!-- Generator: Adobe Illustrator 24.1.2, SVG Export Plug-In . SVG Version: 6.00 Build 0)  -->
<svg width="372pt" height="30pt" viewBox="0 0 374 32" xmlns="http://www.w3.org/2000/svg"><g id="fontsvg1699336362642" stroke-linecap="round" fill-rule="evenodd" fill="#f3ecec"><path d="M 44.948 3 L 44.588 9.92 Q 44.588 10.716 44.517 12.099 A 114.346 114.346 0 0 1 44.468 13 Q 44.348 15.04 44.348 16.08 L 44.428 24.8 Q 43.588 25.24 43.588 26.28 A 1.638 1.638 0 0 0 43.597 26.44 Q 43.617 26.651 43.688 26.96 A 5.839 5.839 0 0 1 43.716 27.089 Q 43.776 27.386 43.753 27.467 A 0.076 0.076 0 0 1 43.748 27.48 Q 43.646 27.616 43.501 27.579 A 0.335 0.335 0 0 1 43.449 27.56 A 7.744 7.744 0 0 1 43.304 27.494 Q 43.241 27.465 43.172 27.431 A 14.169 14.169 0 0 1 43.028 27.36 Q 42.93 27.035 42.661 26.683 A 3.595 3.595 0 0 0 42.528 26.52 A 56.392 56.392 0 0 0 41.969 25.882 A 50.179 50.179 0 0 0 41.788 25.68 A 0.209 0.209 0 0 0 41.662 25.773 Q 41.613 25.847 41.591 25.977 A 0.996 0.996 0 0 0 41.588 26 A 1.163 1.163 0 0 1 41.564 26.124 Q 41.519 26.299 41.428 26.36 A 0.777 0.777 0 0 1 41.044 26.245 Q 40.584 25.982 40.028 25.12 A 2.259 2.259 0 0 0 39.786 24.797 Q 39.637 24.632 39.473 24.534 A 1.002 1.002 0 0 0 39.108 24.4 A 3.643 3.643 0 0 0 39.016 24.733 Q 38.923 25.136 38.868 25.7 Q 38.788 26.52 38.788 27.2 L 38.788 28.16 Q 38.428 28.28 38.388 28.2 A 0.456 0.456 0 0 1 38.325 28.118 Q 38.236 27.975 38.148 27.68 Q 38.076 27.442 37.962 27.303 A 0.537 0.537 0 0 0 37.788 27.16 Q 37.55 27.081 37.253 27.198 A 1.301 1.301 0 0 0 37.248 27.2 A 0.543 0.543 0 0 0 36.969 27.455 Q 36.92 27.545 36.889 27.663 A 1.315 1.315 0 0 0 36.868 27.76 A 3.032 3.032 0 0 1 36.856 28.035 Q 36.83 28.32 36.745 28.487 A 0.478 0.478 0 0 1 36.628 28.64 A 0.673 0.673 0 0 1 36.067 28.365 A 1.107 1.107 0 0 1 35.928 28.12 A 11.802 11.802 0 0 0 35.85 27.94 Q 35.697 27.595 35.631 27.524 A 0.136 0.136 0 0 0 35.628 27.52 Q 35.476 27.156 35.37 26.4 A 14.663 14.663 0 0 1 35.308 25.88 Q 35.188 24.72 34.948 24.2 Q 34.148 24.2 33.348 24.68 A 466.156 466.156 0 0 1 32.793 25.009 Q 31.172 25.967 30.911 26.1 A 0.4 0.4 0 0 1 30.868 26.12 A 15.458 15.458 0 0 1 28.653 25.968 A 11.995 11.995 0 0 1 26.888 25.58 A 9.471 9.471 0 0 1 24.041 24.142 A 11.066 11.066 0 0 1 23.548 23.76 A 5.294 5.294 0 0 1 22.685 22.882 A 4.108 4.108 0 0 1 22.068 21.76 Q 21.695 20.716 21.67 19.323 A 11.248 11.248 0 0 1 21.668 19.12 Q 21.668 18.388 21.816 16.841 A 71.419 71.419 0 0 1 21.828 16.72 Q 21.988 15.08 21.988 14.24 L 21.988 13.72 A 2.904 2.904 0 0 0 21.981 13.54 Q 21.97 13.363 21.94 13.117 A 13.53 13.53 0 0 0 21.908 12.88 Q 22.028 11.72 22.028 10.68 Q 22.028 9.72 21.908 7.76 Q 21.788 5.8 21.788 4.84 L 21.788 3.82 Q 21.788 3.4 21.948 2.4 A 0.654 0.654 0 0 1 22.419 2.2 A 0.779 0.779 0 0 1 22.428 2.2 Q 22.556 2.2 22.787 2.277 A 3.5 3.5 0 0 1 22.908 2.32 Q 23.156 2.413 23.308 2.434 A 0.59 0.59 0 0 0 23.388 2.44 Q 23.668 2.44 23.908 2.2 A 2.563 2.563 0 0 1 24.062 2.535 Q 24.279 3.091 24.528 4.187 A 32.96 32.96 0 0 1 24.628 4.64 A 16.826 16.826 0 0 0 24.778 5.222 Q 24.925 5.752 25.073 6.116 A 4.601 4.601 0 0 0 25.108 6.2 A 0.972 0.972 0 0 0 25.263 5.988 Q 25.435 5.683 25.548 5.12 Q 25.678 4.468 25.729 4.294 A 0.38 0.38 0 0 1 25.747 4.24 Q 25.988 3.4 26.268 2.48 Q 26.548 1.56 27.108 0.96 L 27.508 1 L 27.508 2.12 A 50.449 50.449 0 0 0 27.511 2.756 Q 27.523 3.645 27.568 4.14 A 4.102 4.102 0 0 0 27.699 4.847 Q 27.787 5.17 27.929 5.514 A 6.702 6.702 0 0 0 27.948 5.56 A 1.951 1.951 0 0 0 28.196 5.14 Q 28.404 4.676 28.537 3.932 A 11.226 11.226 0 0 0 28.628 3.32 Q 28.782 2.058 29.054 1.389 A 2.276 2.276 0 0 1 29.228 1.04 Q 29.628 0.8 29.808 0.72 A 0.472 0.472 0 0 1 29.993 0.68 Q 30.055 0.679 30.122 0.692 A 0.836 0.836 0 0 1 30.228 0.72 L 30.388 0.92 Q 30.323 1.438 30.311 1.746 A 3.361 3.361 0 0 0 30.308 1.88 Q 30.21 2.958 30.192 3.423 A 4.699 4.699 0 0 0 30.188 3.6 Q 30.188 4.074 30.213 4.348 A 2.614 2.614 0 0 0 30.228 4.48 L 30.468 4.64 L 32.108 3.4 Q 32.228 3.64 32.088 4.16 A 5.241 5.241 0 0 0 32.04 4.35 Q 31.967 4.668 31.981 4.832 A 0.435 0.435 0 0 0 31.988 4.88 A 15.779 15.779 0 0 1 31.969 5.554 Q 31.896 7.196 31.532 11.213 A 463.642 463.642 0 0 1 31.468 11.92 A 75.422 75.422 0 0 0 31.341 13.451 Q 31.228 15.033 31.228 16.16 A 2.199 2.199 0 0 0 31.761 16.515 Q 32.012 16.637 32.319 16.72 A 4.284 4.284 0 0 0 32.568 16.78 A 195.321 195.321 0 0 0 33.824 17.039 A 174.634 174.634 0 0 0 34.228 17.12 A 1.509 1.509 0 0 0 34.514 17.055 Q 34.87 16.934 34.988 16.64 Q 35.148 16.24 35.148 15.72 A 2.91 2.91 0 0 0 35.13 15.419 Q 35.097 15.109 35.005 14.67 A 15.552 15.552 0 0 0 34.908 14.24 Q 34.668 13.24 34.668 12.72 Q 34.668 11.72 34.548 9.6 Q 34.428 7.48 34.428 6.4 Q 34.428 5.32 34.488 4.4 A 6.766 6.766 0 0 1 34.581 3.659 Q 34.65 3.268 34.766 2.827 A 14.563 14.563 0 0 1 34.948 2.2 A 0.598 0.598 0 0 1 35.061 2.008 Q 35.169 1.888 35.341 1.851 A 0.713 0.713 0 0 1 35.408 1.84 A 3.423 3.423 0 0 1 35.529 1.828 Q 35.778 1.808 35.908 1.84 Q 35.988 2.2 36.068 3.3 A 8.056 8.056 0 0 0 36.129 3.873 Q 36.226 4.546 36.428 4.92 Q 36.668 4.92 36.788 4.6 Q 36.908 4.28 37.028 3.88 Q 37.028 3.17 37.159 2.646 A 2.931 2.931 0 0 1 37.268 2.3 A 1.879 1.879 0 0 1 37.806 1.551 A 2.594 2.594 0 0 1 38.188 1.28 Q 38.725 1.399 39.396 1.697 A 11.317 11.317 0 0 1 39.868 1.92 A 36.15 36.15 0 0 0 39.871 2.46 Q 39.879 2.964 39.902 3.305 A 6.215 6.215 0 0 0 39.928 3.6 Q 39.988 4.12 40.348 4.8 A 0.411 0.411 0 0 0 40.573 4.713 Q 40.717 4.595 40.742 4.324 A 1.329 1.329 0 0 0 40.748 4.2 A 7.512 7.512 0 0 1 40.752 3.937 Q 40.77 3.418 40.868 3.32 A 78.041 78.041 0 0 1 40.925 2.806 Q 41.033 1.861 41.097 1.566 A 1.464 1.464 0 0 1 41.108 1.52 Q 41.388 0.56 42.068 0.12 A 1.335 1.335 0 0 1 42.099 0.235 Q 42.165 0.516 42.252 1.2 A 35.075 35.075 0 0 1 42.268 1.32 Q 42.388 2.28 42.628 2.68 A 0.686 0.686 0 0 0 42.737 2.706 Q 42.935 2.737 43.264 2.699 A 4.604 4.604 0 0 0 43.408 2.68 A 19.912 19.912 0 0 1 43.626 2.649 Q 43.915 2.609 44.052 2.602 A 1.038 1.038 0 0 1 44.108 2.6 Q 44.512 2.6 44.753 2.782 A 0.76 0.76 0 0 1 44.948 3 Z M 331.148 3 L 330.788 9.92 Q 330.788 10.716 330.717 12.099 A 114.346 114.346 0 0 1 330.668 13 Q 330.548 15.04 330.548 16.08 L 330.628 24.8 Q 329.788 25.24 329.788 26.28 A 1.638 1.638 0 0 0 329.797 26.44 Q 329.817 26.651 329.888 26.96 A 5.839 5.839 0 0 1 329.916 27.089 Q 329.976 27.386 329.953 27.467 A 0.076 0.076 0 0 1 329.948 27.48 Q 329.846 27.616 329.701 27.579 A 0.335 0.335 0 0 1 329.649 27.56 A 7.744 7.744 0 0 1 329.504 27.494 Q 329.441 27.465 329.372 27.431 A 14.169 14.169 0 0 1 329.228 27.36 Q 329.13 27.035 328.861 26.683 A 3.595 3.595 0 0 0 328.728 26.52 A 56.392 56.392 0 0 0 328.169 25.882 A 50.179 50.179 0 0 0 327.988 25.68 A 0.209 0.209 0 0 0 327.862 25.773 Q 327.813 25.847 327.791 25.977 A 0.996 0.996 0 0 0 327.788 26 A 1.163 1.163 0 0 1 327.764 26.124 Q 327.719 26.299 327.628 26.36 A 0.777 0.777 0 0 1 327.244 26.245 Q 326.784 25.982 326.228 25.12 A 2.259 2.259 0 0 0 325.986 24.797 Q 325.837 24.632 325.673 24.534 A 1.002 1.002 0 0 0 325.308 24.4 A 3.643 3.643 0 0 0 325.216 24.733 Q 325.123 25.136 325.068 25.7 Q 324.988 26.52 324.988 27.2 L 324.988 28.16 Q 324.628 28.28 324.588 28.2 A 0.456 0.456 0 0 1 324.525 28.118 Q 324.436 27.975 324.348 27.68 Q 324.276 27.442 324.162 27.303 A 0.537 0.537 0 0 0 323.988 27.16 Q 323.75 27.081 323.453 27.198 A 1.301 1.301 0 0 0 323.448 27.2 A 0.543 0.543 0 0 0 323.169 27.455 Q 323.12 27.545 323.089 27.663 A 1.315 1.315 0 0 0 323.068 27.76 A 3.032 3.032 0 0 1 323.056 28.035 Q 323.03 28.32 322.945 28.487 A 0.478 0.478 0 0 1 322.828 28.64 A 0.673 0.673 0 0 1 322.267 28.365 A 1.107 1.107 0 0 1 322.128 28.12 A 11.802 11.802 0 0 0 322.05 27.94 Q 321.897 27.595 321.831 27.524 A 0.136 0.136 0 0 0 321.828 27.52 Q 321.676 27.156 321.57 26.4 A 14.663 14.663 0 0 1 321.508 25.88 Q 321.388 24.72 321.148 24.2 Q 320.348 24.2 319.548 24.68 A 466.156 466.156 0 0 1 318.993 25.009 Q 317.372 25.967 317.111 26.1 A 0.4 0.4 0 0 1 317.068 26.12 A 15.458 15.458 0 0 1 314.853 25.968 A 11.995 11.995 0 0 1 313.088 25.58 A 9.471 9.471 0 0 1 310.241 24.142 A 11.066 11.066 0 0 1 309.748 23.76 A 5.294 5.294 0 0 1 308.885 22.882 A 4.108 4.108 0 0 1 308.268 21.76 Q 307.895 20.716 307.87 19.323 A 11.248 11.248 0 0 1 307.868 19.12 Q 307.868 18.388 308.016 16.841 A 71.419 71.419 0 0 1 308.028 16.72 Q 308.188 15.08 308.188 14.24 L 308.188 13.72 A 2.904 2.904 0 0 0 308.181 13.54 Q 308.17 13.363 308.14 13.117 A 13.53 13.53 0 0 0 308.108 12.88 Q 308.228 11.72 308.228 10.68 Q 308.228 9.72 308.108 7.76 Q 307.988 5.8 307.988 4.84 L 307.988 3.82 Q 307.988 3.4 308.148 2.4 A 0.654 0.654 0 0 1 308.619 2.2 A 0.779 0.779 0 0 1 308.628 2.2 Q 308.756 2.2 308.987 2.277 A 3.5 3.5 0 0 1 309.108 2.32 Q 309.356 2.413 309.508 2.434 A 0.59 0.59 0 0 0 309.588 2.44 Q 309.868 2.44 310.108 2.2 A 2.563 2.563 0 0 1 310.262 2.535 Q 310.479 3.091 310.728 4.187 A 32.96 32.96 0 0 1 310.828 4.64 A 16.826 16.826 0 0 0 310.978 5.222 Q 311.125 5.752 311.273 6.116 A 4.601 4.601 0 0 0 311.308 6.2 A 0.972 0.972 0 0 0 311.463 5.988 Q 311.635 5.683 311.748 5.12 Q 311.878 4.468 311.929 4.294 A 0.38 0.38 0 0 1 311.947 4.24 Q 312.188 3.4 312.468 2.48 Q 312.748 1.56 313.308 0.96 L 313.708 1 L 313.708 2.12 A 50.449 50.449 0 0 0 313.711 2.756 Q 313.723 3.645 313.768 4.14 A 4.102 4.102 0 0 0 313.899 4.847 Q 313.987 5.17 314.129 5.514 A 6.702 6.702 0 0 0 314.148 5.56 A 1.951 1.951 0 0 0 314.396 5.14 Q 314.604 4.676 314.737 3.932 A 11.226 11.226 0 0 0 314.828 3.32 Q 314.982 2.058 315.254 1.389 A 2.276 2.276 0 0 1 315.428 1.04 Q 315.828 0.8 316.008 0.72 A 0.472 0.472 0 0 1 316.193 0.68 Q 316.255 0.679 316.322 0.692 A 0.836 0.836 0 0 1 316.428 0.72 L 316.588 0.92 Q 316.523 1.438 316.511 1.746 A 3.361 3.361 0 0 0 316.508 1.88 Q 316.41 2.958 316.392 3.423 A 4.699 4.699 0 0 0 316.388 3.6 Q 316.388 4.074 316.413 4.348 A 2.614 2.614 0 0 0 316.428 4.48 L 316.668 4.64 L 318.308 3.4 Q 318.428 3.64 318.288 4.16 A 5.241 5.241 0 0 0 318.24 4.35 Q 318.167 4.668 318.181 4.832 A 0.435 0.435 0 0 0 318.188 4.88 A 15.779 15.779 0 0 1 318.169 5.554 Q 318.096 7.196 317.732 11.213 A 463.642 463.642 0 0 1 317.668 11.92 A 75.422 75.422 0 0 0 317.541 13.451 Q 317.428 15.033 317.428 16.16 A 2.199 2.199 0 0 0 317.961 16.515 Q 318.212 16.637 318.519 16.72 A 4.284 4.284 0 0 0 318.768 16.78 A 195.321 195.321 0 0 0 320.024 17.039 A 174.634 174.634 0 0 0 320.428 17.12 A 1.509 1.509 0 0 0 320.714 17.055 Q 321.07 16.934 321.188 16.64 Q 321.348 16.24 321.348 15.72 A 2.91 2.91 0 0 0 321.33 15.419 Q 321.297 15.109 321.205 14.67 A 15.552 15.552 0 0 0 321.108 14.24 Q 320.868 13.24 320.868 12.72 Q 320.868 11.72 320.748 9.6 Q 320.628 7.48 320.628 6.4 Q 320.628 5.32 320.688 4.4 A 6.766 6.766 0 0 1 320.781 3.659 Q 320.85 3.268 320.966 2.827 A 14.563 14.563 0 0 1 321.148 2.2 A 0.598 0.598 0 0 1 321.261 2.008 Q 321.369 1.888 321.541 1.851 A 0.713 0.713 0 0 1 321.608 1.84 A 3.423 3.423 0 0 1 321.729 1.828 Q 321.978 1.808 322.108 1.84 Q 322.188 2.2 322.268 3.3 A 8.056 8.056 0 0 0 322.329 3.873 Q 322.426 4.546 322.628 4.92 Q 322.868 4.92 322.988 4.6 Q 323.108 4.28 323.228 3.88 Q 323.228 3.17 323.359 2.646 A 2.931 2.931 0 0 1 323.468 2.3 A 1.879 1.879 0 0 1 324.006 1.551 A 2.594 2.594 0 0 1 324.388 1.28 Q 324.925 1.399 325.596 1.697 A 11.317 11.317 0 0 1 326.068 1.92 A 36.15 36.15 0 0 0 326.071 2.46 Q 326.079 2.964 326.102 3.305 A 6.215 6.215 0 0 0 326.128 3.6 Q 326.188 4.12 326.548 4.8 A 0.411 0.411 0 0 0 326.773 4.713 Q 326.917 4.595 326.942 4.324 A 1.329 1.329 0 0 0 326.948 4.2 A 7.512 7.512 0 0 1 326.952 3.937 Q 326.97 3.418 327.068 3.32 A 78.041 78.041 0 0 1 327.125 2.806 Q 327.233 1.861 327.297 1.566 A 1.464 1.464 0 0 1 327.308 1.52 Q 327.588 0.56 328.268 0.12 A 1.335 1.335 0 0 1 328.299 0.235 Q 328.365 0.516 328.452 1.2 A 35.075 35.075 0 0 1 328.468 1.32 Q 328.588 2.28 328.828 2.68 A 0.686 0.686 0 0 0 328.937 2.706 Q 329.135 2.737 329.464 2.699 A 4.604 4.604 0 0 0 329.608 2.68 A 19.912 19.912 0 0 1 329.826 2.649 Q 330.115 2.609 330.252 2.602 A 1.038 1.038 0 0 1 330.308 2.6 Q 330.712 2.6 330.953 2.782 A 0.76 0.76 0 0 1 331.148 3 Z M 103.428 1.6 L 103.868 2.48 Q 104.268 2.44 105.068 3.28 Q 105.39 3.602 105.627 3.689 A 0.472 0.472 0 0 0 105.788 3.72 Q 106.108 3.72 106.428 3.4 Q 106.707 3.56 107.146 3.281 A 1.542 1.542 0 0 0 107.148 3.28 A 1.461 1.461 0 0 1 107.318 3.186 Q 107.651 3.032 107.908 3.16 L 112.148 11.72 A 0.666 0.666 0 0 0 112.259 11.867 A 0.453 0.453 0 0 0 112.588 12 A 0.568 0.568 0 0 0 112.919 11.892 A 0.81 0.81 0 0 0 113.028 11.8 Q 113.748 10.72 114.628 8.84 Q 115.068 7.92 115.508 6.96 Q 115.788 6.84 116.028 6.96 Q 116.089 7.297 116.127 7.563 A 9.567 9.567 0 0 1 116.148 7.72 A 0.733 0.733 0 0 0 116.192 7.9 A 0.476 0.476 0 0 0 116.428 8.16 A 0.647 0.647 0 0 0 116.803 7.981 Q 116.891 7.899 116.968 7.781 A 1.522 1.522 0 0 0 117.028 7.68 Q 117.068 7.6 117.268 7.06 A 2.463 2.463 0 0 0 117.363 6.72 Q 117.44 6.353 117.479 5.802 A 14.839 14.839 0 0 0 117.508 5.22 A 4.928 4.928 0 0 1 117.57 4.556 Q 117.696 3.808 118.064 3.405 A 1.426 1.426 0 0 1 118.108 3.36 Q 118.108 2.92 118.128 2.46 Q 118.148 2 118.428 1.76 A 0.942 0.942 0 0 1 118.532 1.754 Q 118.848 1.754 119.208 1.96 A 3.73 3.73 0 0 0 119.392 2.059 Q 119.668 2.197 119.821 2.2 A 0.344 0.344 0 0 0 119.828 2.2 Q 120.042 2.476 120.233 2.669 A 3.175 3.175 0 0 0 120.348 2.78 A 0.915 0.915 0 0 0 120.547 2.921 A 0.692 0.692 0 0 0 120.868 3 Q 121.108 3 121.288 2.82 Q 121.468 2.64 121.708 2.44 Q 121.933 2.252 122.194 2.417 A 0.73 0.73 0 0 1 122.228 2.44 A 0.569 0.569 0 0 1 122.269 2.487 Q 122.358 2.6 122.548 2.9 Q 122.788 3.28 123.028 3.32 Q 123.708 3.2 124.028 3.2 Q 124.268 3.2 124.508 3.32 Q 125.194 4.078 125.537 5.798 A 12.714 12.714 0 0 1 125.608 6.18 Q 125.948 8.2 126.068 8.56 L 127.268 13.8 A 13.402 13.402 0 0 1 127.952 15.32 A 17.767 17.767 0 0 1 128.428 16.76 Q 128.703 17.74 128.979 19.048 A 58.861 58.861 0 0 1 129.148 19.88 A 0.431 0.431 0 0 1 129.069 19.955 Q 128.912 20.067 128.704 19.954 A 0.734 0.734 0 0 1 128.648 19.92 A 9.82 9.82 0 0 0 128.577 19.873 Q 128.343 19.72 128.308 19.72 Q 127.924 19.413 127.688 18.647 A 4.81 4.81 0 0 1 127.668 18.58 A 16.527 16.527 0 0 0 127.582 18.296 Q 127.406 17.732 127.308 17.601 A 0.249 0.249 0 0 0 127.308 17.6 Q 126.548 15.88 125.788 14.12 A 0.101 0.101 0 0 0 125.739 14.135 Q 125.673 14.171 125.588 14.3 A 0.411 0.411 0 0 0 125.551 14.367 Q 125.501 14.484 125.557 14.592 A 0.342 0.342 0 0 0 125.588 14.64 A 2.162 2.162 0 0 1 125.694 14.941 Q 125.737 15.097 125.767 15.279 A 4.796 4.796 0 0 1 125.808 15.58 Q 125.868 16.16 125.948 16.72 A 1809.952 1809.952 0 0 0 126.436 17.961 Q 127.415 20.445 127.708 21.16 Q 128.428 22.88 129.668 25.56 Q 129.668 25.699 129.409 26.006 A 4.189 4.189 0 0 1 129.328 26.1 A 1.167 1.167 0 0 0 129.206 26.261 Q 129.022 26.557 129.148 26.84 A 1.42 1.42 0 0 0 128.354 26.371 A 2.192 2.192 0 0 0 127.868 26.32 L 126.988 26.32 Q 126.856 26.616 126.267 26.722 A 3.353 3.353 0 0 1 125.988 26.76 Q 125.166 26.838 125.225 27.529 A 1.203 1.203 0 0 0 125.228 27.56 A 3.291 3.291 0 0 1 124.88 27.54 Q 124.71 27.522 124.521 27.487 A 6.385 6.385 0 0 1 124.288 27.44 Q 123.748 27.32 123.228 27.2 L 120.268 24.16 L 118.708 20.96 Q 118.515 20.921 118.433 20.92 A 0.345 0.345 0 0 0 118.428 20.92 Q 118.348 20.92 118.308 20.88 A 4.402 4.402 0 0 0 118.125 21.147 Q 117.842 21.592 117.373 22.465 A 61.473 61.473 0 0 0 117.068 23.04 Q 115.818 25.382 114.417 26.239 A 3.947 3.947 0 0 1 114.348 26.28 Q 114.277 26.526 114.515 26.941 A 2.846 2.846 0 0 0 114.588 27.06 Q 114.875 27.508 114.808 27.748 A 0.293 0.293 0 0 1 114.788 27.8 A 12.461 12.461 0 0 1 113.54 26.978 Q 112.723 26.37 111.868 25.56 Q 109.628 23.28 107.388 20.96 A 0.856 0.856 0 0 0 107.171 20.986 A 0.573 0.573 0 0 0 106.848 21.2 A 1.36 1.36 0 0 0 106.721 21.408 Q 106.623 21.605 106.548 21.88 A 13.541 13.541 0 0 1 106.334 22.609 Q 106.205 23.01 106.04 23.453 A 25.523 25.523 0 0 1 105.828 24 Q 105.11 25.774 104.999 26.052 A 23.444 23.444 0 0 0 104.988 26.08 A 3.232 3.232 0 0 1 104.634 26.45 Q 104.24 26.798 103.828 26.88 Q 103.651 26.739 103.553 26.115 A 6.051 6.051 0 0 1 103.528 25.94 Q 103.433 25.199 102.886 25.27 A 0.88 0.88 0 0 0 102.828 25.28 Q 101.588 26.64 100.388 28 A 0.555 0.555 0 0 1 100.138 27.946 Q 99.966 27.86 99.868 27.64 Q 99.708 27.28 99.588 26.92 Q 99.708 26.36 99.668 26.24 A 0.81 0.81 0 0 0 99.091 26 A 1.063 1.063 0 0 0 99.068 26 A 0.539 0.539 0 0 0 98.892 26.037 Q 98.539 26.163 97.828 26.72 Q 97.511 26.979 97.298 27.052 A 0.47 0.47 0 0 1 97.148 27.08 Q 96.713 27.08 96.435 26.106 A 5.01 5.01 0 0 1 96.428 26.08 A 5.504 5.504 0 0 1 96.512 25.151 Q 96.59 24.698 96.739 24.198 A 10.49 10.49 0 0 1 96.868 23.8 Q 98.01 20.484 98.134 20.019 A 0.706 0.706 0 0 0 98.148 19.96 A 1.456 1.456 0 0 1 98.086 19.735 Q 98.028 19.445 98.028 19 A 3.792 3.792 0 0 1 98.073 18.447 Q 98.158 17.875 98.403 17.114 A 14.435 14.435 0 0 1 98.488 16.86 A 57.91 57.91 0 0 0 98.671 16.319 Q 98.882 15.682 98.974 15.341 A 3.577 3.577 0 0 0 99.028 15.12 A 8.028 8.028 0 0 0 99.214 14.504 Q 99.568 13.178 100.068 10.24 A 24.956 24.956 0 0 1 100.432 8.456 Q 100.875 6.648 101.508 5.52 Q 101.588 4.8 102.188 3.28 Q 102.533 2.417 102.61 2.031 A 1.313 1.313 0 0 0 102.628 1.92 A 0.365 0.365 0 0 1 102.86 1.702 A 0.552 0.552 0 0 1 102.948 1.68 L 103.428 1.6 Z M 263.388 3.28 L 264.108 3.28 A 4.276 4.276 0 0 0 264.587 3.255 Q 264.96 3.213 265.248 3.1 A 0.97 0.97 0 0 0 265.78 2.594 A 1.473 1.473 0 0 0 265.868 2.36 Q 266.588 2.24 267.028 2.72 Q 267.668 3.68 268.308 4.6 L 275.548 11.72 A 1.761 1.761 0 0 0 276.177 11.473 Q 276.6 11.195 276.76 10.659 A 2.373 2.373 0 0 0 276.848 10.16 A 232.339 232.339 0 0 0 277.007 7.911 A 211.179 211.179 0 0 0 277.028 7.6 Q 277.028 7.322 277.164 6.847 A 7.045 7.045 0 0 1 277.208 6.7 A 9.835 9.835 0 0 0 277.278 6.464 Q 277.373 6.128 277.386 5.966 A 0.59 0.59 0 0 0 277.388 5.92 A 1.099 1.099 0 0 0 277.302 5.5 A 1.464 1.464 0 0 0 277.188 5.28 Q 276.868 5.52 276.768 6.26 A 10.817 10.817 0 0 1 276.717 6.599 Q 276.64 7.059 276.552 7.271 A 0.962 0.962 0 0 1 276.548 7.28 A 1.708 1.708 0 0 1 276.332 6.801 Q 276.268 6.58 276.244 6.316 A 3.819 3.819 0 0 1 276.228 5.96 Q 276.228 5.688 276.274 5.324 A 9.456 9.456 0 0 1 276.328 4.96 A 25.86 25.86 0 0 1 276.533 3.87 A 23.636 23.636 0 0 1 276.548 3.8 Q 276.743 3.67 276.832 3.646 A 0.138 0.138 0 0 1 276.868 3.64 Q 277.068 4 277.308 4.32 Q 277.426 4.241 277.7 3.675 A 11.153 11.153 0 0 0 277.708 3.66 A 1.231 1.231 0 0 1 277.815 3.476 Q 278.039 3.165 278.363 3.245 A 0.722 0.722 0 0 1 278.468 3.28 A 1.331 1.331 0 0 0 278.615 3.37 Q 278.783 3.458 278.928 3.458 A 0.435 0.435 0 0 0 279.148 3.4 Q 279.223 3.325 279.473 2.935 A 20.523 20.523 0 0 0 279.508 2.88 Q 279.67 2.624 279.86 2.517 A 0.577 0.577 0 0 1 280.148 2.44 A 0.493 0.493 0 0 1 280.305 2.671 Q 280.348 2.794 280.348 2.96 A 3.743 3.743 0 0 0 280.359 3.266 Q 280.4 3.764 280.588 3.92 A 0.48 0.48 0 0 0 280.765 3.843 Q 280.827 3.8 280.887 3.737 A 1.122 1.122 0 0 0 280.968 3.64 Q 281.148 3.4 281.348 3.12 Q 281.766 2.863 282.12 2.696 A 5.134 5.134 0 0 1 282.288 2.62 A 2.222 2.222 0 0 1 282.912 2.458 A 2.756 2.756 0 0 1 283.228 2.44 A 1.815 1.815 0 0 1 283.75 2.52 A 2.488 2.488 0 0 1 284.148 2.68 A 0.19 0.19 0 0 0 284.233 2.653 Q 284.407 2.561 284.762 2.15 A 8.632 8.632 0 0 0 284.788 2.12 Q 284.93 1.954 285.072 1.887 A 0.452 0.452 0 0 1 285.268 1.84 A 0.683 0.683 0 0 1 285.686 1.983 A 0.857 0.857 0 0 1 285.708 2 Q 285.828 2.48 285.948 3.12 A 7.215 7.215 0 0 1 286.045 3.815 A 5.751 5.751 0 0 1 286.068 4.32 Q 285.923 5.006 285.844 6.198 A 30.916 30.916 0 0 0 285.828 6.46 A 56.207 56.207 0 0 0 285.779 7.442 Q 285.759 7.925 285.752 8.35 A 28.483 28.483 0 0 0 285.748 8.84 L 285.748 10.36 Q 285.748 11.576 285.561 14.318 A 196.609 196.609 0 0 1 285.528 14.8 Q 285.348 17.349 285.315 18.456 A 14.596 14.596 0 0 0 285.308 18.88 Q 285.308 19.776 285.343 20.498 A 23.556 23.556 0 0 0 285.348 20.6 A 11.157 11.157 0 0 0 285.445 21.581 A 13.298 13.298 0 0 0 285.548 22.2 Q 285.708 22.76 285.788 23.96 A 173.026 173.026 0 0 0 285.821 24.447 Q 285.863 25.06 285.892 25.387 A 13.34 13.34 0 0 0 285.908 25.56 Q 285.825 25.807 285.69 25.927 A 0.441 0.441 0 0 1 285.388 26.04 A 8.022 8.022 0 0 0 285.127 25.931 Q 284.753 25.783 284.562 25.763 A 0.53 0.53 0 0 0 284.508 25.76 A 0.287 0.287 0 0 0 284.284 25.87 Q 284.194 25.974 284.135 26.175 A 1.807 1.807 0 0 0 284.108 26.28 Q 283.908 26.36 283.328 26.42 A 4.008 4.008 0 0 0 283.044 26.459 Q 282.776 26.506 282.61 26.583 A 0.767 0.767 0 0 0 282.508 26.64 Q 282.148 26.76 281.608 26.44 Q 281.068 26.12 280.948 26.12 Q 280.708 26.12 280.468 26.4 L 279.028 25.2 A 1.571 1.571 0 0 0 278.821 25.212 Q 278.361 25.274 278.428 25.64 Q 278.502 26.051 278.158 26.427 A 1.649 1.649 0 0 1 278.108 26.48 A 2.662 2.662 0 0 1 277.302 26.24 Q 276.958 26.08 276.597 25.819 A 6.85 6.85 0 0 1 275.948 25.28 Q 274.306 23.753 274.049 23.574 A 0.386 0.386 0 0 0 274.028 23.56 Q 272.988 22.48 271.888 21.36 Q 270.788 20.24 269.708 19.52 Q 269.531 19.476 269.409 19.517 A 0.318 0.318 0 0 0 269.248 19.64 Q 269.126 19.813 269.065 20.077 A 1.975 1.975 0 0 0 269.048 20.16 Q 268.988 20.48 268.988 20.82 L 268.988 21.32 Q 268.988 22.72 268.908 23.34 Q 268.828 23.96 268.348 24.52 Q 268.148 24.6 267.728 24.42 A 10.347 10.347 0 0 0 267.582 24.359 Q 267.293 24.24 267.228 24.24 Q 266.948 24.24 266.948 24.76 A 1.465 1.465 0 0 1 266.654 25.619 Q 266.318 26.093 265.597 26.525 A 6.349 6.349 0 0 1 265.468 26.6 A 4.67 4.67 0 0 0 265.029 26.869 Q 264.521 27.224 264.348 27.6 Q 263.908 27.6 263.588 27.32 L 262.468 26.28 Q 262.157 26.125 261.701 26.09 A 3.61 3.61 0 0 0 261.428 26.08 Q 261.068 26.08 260.628 26.12 Q 260.212 26.158 260.153 26.16 A 0.166 0.166 0 0 1 260.148 26.16 A 1.941 1.941 0 0 1 259.982 26.152 Q 259.783 26.135 259.508 26.08 L 259.108 24.96 Q 259.108 23.827 259.19 21.838 A 205.328 205.328 0 0 1 259.248 20.54 Q 259.362 18.138 259.383 17.058 A 21.985 21.985 0 0 0 259.388 16.64 L 259.388 16.2 Q 259.388 15.44 259.348 14.62 A 14.911 14.911 0 0 0 259.216 13.231 A 13.555 13.555 0 0 0 259.188 13.04 A 6.764 6.764 0 0 1 259.04 12.349 A 5.508 5.508 0 0 1 258.988 11.9 Q 258.948 11.36 258.948 10.64 Q 258.948 10.273 258.971 9.624 A 76.996 76.996 0 0 1 258.988 9.2 Q 259.018 8.465 259.025 8.011 A 16.022 16.022 0 0 0 259.028 7.76 L 259.028 7.04 Q 258.948 6.56 258.948 6.32 Q 258.948 5.954 258.865 5.312 A 20.4 20.4 0 0 0 258.828 5.04 Q 258.708 4.2 258.708 3.8 Q 258.708 3.44 258.828 3 A 0.619 0.619 0 0 1 258.897 2.89 Q 259.001 2.76 259.148 2.76 A 0.342 0.342 0 0 1 259.26 2.781 Q 259.358 2.815 259.477 2.904 A 1.658 1.658 0 0 1 259.548 2.96 Q 259.741 3.121 259.83 3.152 A 0.116 0.116 0 0 0 259.868 3.16 Q 260.588 2.96 261.348 2.76 A 2.001 2.001 0 0 0 261.849 2.488 A 1.451 1.451 0 0 0 262.388 1.68 A 0.487 0.487 0 0 1 262.555 1.806 Q 262.73 2 262.868 2.44 A 2.895 2.895 0 0 0 262.982 2.749 Q 263.153 3.133 263.388 3.28 Z M 236.788 7 L 233.628 14.24 L 231.348 20.28 L 229.588 25.72 L 229.588 26.32 A 1.785 1.785 0 0 1 229.562 26.635 Q 229.531 26.808 229.463 26.944 A 0.83 0.83 0 0 1 229.308 27.16 A 1.719 1.719 0 0 1 229.105 27.215 Q 228.996 27.237 228.896 27.24 A 1.021 1.021 0 0 1 228.868 27.24 Q 228.493 27.24 228.437 26.949 A 0.585 0.585 0 0 1 228.428 26.84 Q 228.466 26.724 228.468 26.422 A 4.967 4.967 0 0 0 228.468 26.4 A 0.98 0.98 0 0 0 228.459 26.267 Q 228.439 26.119 228.369 26.052 A 0.199 0.199 0 0 0 228.268 26 Q 227.668 26.12 227.628 26.12 A 0.492 0.492 0 0 1 227.215 25.916 Q 227.153 25.834 227.108 25.72 A 0.843 0.843 0 0 1 227.083 25.6 Q 227.047 25.327 227.128 24.86 A 20.562 20.562 0 0 0 227.162 24.657 Q 227.211 24.35 227.224 24.201 A 1.023 1.023 0 0 0 227.228 24.12 A 1.396 1.396 0 0 0 227.212 23.905 Q 227.194 23.792 227.157 23.698 A 0.71 0.71 0 0 0 227.108 23.6 Q 226.677 23.923 226.456 24.568 A 3.265 3.265 0 0 0 226.408 24.72 Q 226.188 25.48 226.188 26.28 A 0.975 0.975 0 0 1 226.075 26.378 Q 225.779 26.594 225.511 26.363 A 0.716 0.716 0 0 1 225.508 26.36 A 0.413 0.413 0 0 1 225.396 26.255 Q 225.309 26.143 225.236 25.94 A 2.793 2.793 0 0 1 225.168 25.72 Q 225.028 25.2 224.588 25.2 A 0.689 0.689 0 0 1 224.315 25.522 Q 224.202 25.596 224.049 25.649 A 1.953 1.953 0 0 1 223.768 25.72 A 1.813 1.813 0 0 0 223.498 25.789 Q 223.09 25.931 223.028 26.24 A 0.451 0.451 0 0 1 222.884 26.263 Q 222.74 26.263 222.573 26.179 A 1.264 1.264 0 0 1 222.468 26.12 A 3.617 3.617 0 0 0 222.355 26.052 Q 222.172 25.947 222.073 25.925 A 0.216 0.216 0 0 0 222.028 25.92 L 221.608 26.58 A 0.78 0.78 0 0 1 221.536 26.676 Q 221.435 26.792 221.323 26.799 A 0.231 0.231 0 0 1 221.308 26.8 A 0.517 0.517 0 0 1 221.166 26.779 Q 221.103 26.761 221.036 26.728 A 1.149 1.149 0 0 1 220.948 26.68 Q 220.308 26.6 219.888 26.56 Q 219.468 26.52 219.388 26.04 Q 219.108 24.72 218.468 23.2 Q 217.828 21.84 217.228 20.48 Q 216.308 16.92 214.308 12.12 Q 212.548 8.04 210.828 3.92 A 0.59 0.59 0 0 1 210.77 3.821 Q 210.667 3.594 210.848 3.38 A 0.879 0.879 0 0 1 211.101 3.17 A 0.809 0.809 0 0 1 211.388 3.08 A 0.849 0.849 0 0 1 211.605 3.226 Q 211.795 3.396 211.995 3.717 A 4.88 4.88 0 0 1 212.148 3.98 Q 212.544 4.712 212.9 4.72 A 0.35 0.35 0 0 0 212.908 4.72 A 0.839 0.839 0 0 0 213.141 4.685 Q 213.279 4.645 213.428 4.56 Q 213.709 4.497 213.966 4.019 A 3.519 3.519 0 0 0 214.108 3.72 A 1.521 1.521 0 0 1 214.236 3.474 Q 214.545 3.004 215.068 3.2 A 0.349 0.349 0 0 0 215.179 3.052 Q 215.228 2.936 215.228 2.76 A 6.958 6.958 0 0 1 215.207 2.572 Q 215.188 2.384 215.188 2.249 A 2.044 2.044 0 0 1 215.188 2.24 A 0.616 0.616 0 0 1 215.215 2.05 Q 215.275 1.864 215.466 1.777 A 0.651 0.651 0 0 1 215.508 1.76 A 1.795 1.795 0 0 0 215.707 1.986 A 1.6 1.6 0 0 0 215.768 2.04 Q 215.908 2.16 216.068 2.16 A 0.432 0.432 0 0 0 216.188 2.14 Q 216.37 2.087 216.655 1.889 A 4.086 4.086 0 0 0 216.668 1.88 Q 217.01 1.64 217.177 1.606 A 0.253 0.253 0 0 1 217.228 1.6 A 0.325 0.325 0 0 1 217.455 1.7 Q 217.624 1.86 217.748 2.28 Q 217.908 2.48 218.168 2.52 Q 218.428 2.56 218.708 2.6 Q 218.89 2.752 219.118 3.146 A 6.424 6.424 0 0 1 219.268 3.42 A 2.685 2.685 0 0 0 219.425 3.689 Q 219.608 3.96 219.804 4.066 A 0.56 0.56 0 0 0 219.948 4.12 A 0.597 0.597 0 0 0 219.99 4.004 Q 220.028 3.86 220.028 3.64 A 1.62 1.62 0 0 0 220.013 3.438 Q 219.986 3.218 219.903 2.914 A 7.479 7.479 0 0 0 219.848 2.72 Q 219.668 2.12 219.628 1.92 A 13.868 13.868 0 0 1 219.462 1.607 Q 219.335 1.36 219.248 1.16 Q 219.108 0.84 219.108 0.48 Q 219.108 0.24 219.228 0 A 5.533 5.533 0 0 1 219.745 0.559 Q 219.991 0.862 220.229 1.228 A 9.907 9.907 0 0 1 220.388 1.48 Q 221.148 2.92 221.948 4.32 L 224.428 11.36 Q 224.557 11.379 224.652 11.354 A 0.306 0.306 0 0 0 224.828 11.24 Q 224.936 11.095 225.044 10.82 A 3.899 3.899 0 0 0 225.068 10.76 Q 226.828 5.56 228.628 0.32 A 5.276 5.276 0 0 1 228.739 0.252 Q 228.958 0.123 229.025 0.12 A 0.069 0.069 0 0 1 229.028 0.12 A 0.76 0.76 0 0 0 229.167 0.548 Q 229.331 0.793 229.688 1.02 A 1.562 1.562 0 0 1 229.921 1.199 Q 230.307 1.562 230.148 2.04 A 0.621 0.621 0 0 0 230.227 2.143 Q 230.401 2.323 230.648 2.21 A 0.653 0.653 0 0 0 230.668 2.2 Q 231.147 1.426 231.354 1.06 A 8.542 8.542 0 0 0 231.388 1 A 1.614 1.614 0 0 1 231.625 0.708 Q 231.99 0.359 232.482 0.436 A 1.259 1.259 0 0 1 232.508 0.44 A 0.395 0.395 0 0 1 232.697 0.718 A 0.645 0.645 0 0 1 232.708 0.84 Q 232.708 0.933 232.684 1.051 A 1.692 1.692 0 0 1 232.668 1.12 Q 232.628 1.28 232.588 1.42 A 1.103 1.103 0 0 0 232.558 1.555 A 0.822 0.822 0 0 0 232.548 1.68 Q 232.854 1.953 233.277 1.499 A 2.403 2.403 0 0 0 233.428 1.32 Q 233.684 0.968 233.914 0.872 A 0.467 0.467 0 0 1 234.028 0.84 A 0.654 0.654 0 0 1 234.138 0.782 Q 234.195 0.758 234.263 0.74 A 1.348 1.348 0 0 1 234.348 0.72 L 234.748 0.64 A 1.062 1.062 0 0 1 234.763 0.786 Q 234.78 1.189 234.537 1.796 A 5.243 5.243 0 0 1 234.528 1.82 A 9.619 9.619 0 0 0 234.411 2.122 Q 234.228 2.621 234.228 2.84 Q 234.228 3.12 234.348 3.36 Q 234.828 3.24 235.248 2.52 A 8.661 8.661 0 0 1 235.423 2.232 Q 235.684 1.823 235.86 1.676 A 0.57 0.57 0 0 1 235.908 1.64 A 9.143 9.143 0 0 1 236.102 1.514 Q 236.275 1.405 236.488 1.28 A 1.833 1.833 0 0 1 236.954 1.083 A 1.638 1.638 0 0 1 237.188 1.04 Q 237.268 1.24 237.128 1.58 Q 237.005 1.879 236.99 2.008 A 0.283 0.283 0 0 0 236.988 2.04 A 0.297 0.297 0 0 0 237.07 2.241 Q 237.169 2.353 237.388 2.44 A 2.128 2.128 0 0 1 237.833 2.483 Q 238.102 2.541 238.3 2.675 A 1.088 1.088 0 0 1 238.588 2.96 A 5.431 5.431 0 0 1 238.4 3.64 Q 238.125 4.448 237.548 5.52 A 893.128 893.128 0 0 0 237.326 5.95 Q 236.963 6.653 236.833 6.91 A 17.562 17.562 0 0 0 236.788 7 Z M 249.388 12.12 L 249.948 12.48 Q 251.816 12.327 253.086 12.232 A 183.608 183.608 0 0 1 253.808 12.18 Q 255.228 12.08 256.988 12.08 A 0.536 0.536 0 0 0 257.048 12.32 Q 257.129 12.482 257.316 12.65 A 1.928 1.928 0 0 0 257.328 12.66 A 2.155 2.155 0 0 1 257.46 12.786 Q 257.588 12.92 257.637 13.031 A 0.32 0.32 0 0 1 257.668 13.16 A 0.58 0.58 0 0 1 257.556 13.278 Q 257.356 13.446 256.888 13.654 A 8.499 8.499 0 0 1 256.688 13.74 Q 256.153 13.962 255.967 14.209 A 0.446 0.446 0 0 0 255.868 14.48 A 0.451 0.451 0 0 0 255.882 14.586 Q 255.908 14.692 255.98 14.833 A 2.277 2.277 0 0 0 256.028 14.92 Q 256.028 15.202 255.721 15.422 A 1.576 1.576 0 0 1 255.528 15.54 A 1.719 1.719 0 0 0 255.322 15.664 Q 255.028 15.874 255.028 16.12 A 0.623 0.623 0 0 0 255.119 16.234 Q 255.273 16.391 255.608 16.58 A 2.057 2.057 0 0 1 255.786 16.692 Q 255.956 16.813 256.024 16.93 A 0.299 0.299 0 0 1 256.068 17.08 A 0.332 0.332 0 0 1 256.056 17.162 Q 256.036 17.239 255.982 17.34 A 1.545 1.545 0 0 1 255.948 17.4 A 0.218 0.218 0 0 0 255.903 17.534 Q 255.903 17.647 256.007 17.792 A 1.044 1.044 0 0 0 256.028 17.82 Q 256.194 18.037 256.194 18.184 A 0.231 0.231 0 0 1 256.188 18.24 L 255.348 18.68 L 249.788 18.88 A 0.638 0.638 0 0 0 249.579 19.216 Q 249.552 19.32 249.548 19.444 A 1.289 1.289 0 0 0 249.548 19.48 A 1.125 1.125 0 0 0 249.557 19.613 Q 249.574 19.755 249.623 19.949 A 4.737 4.737 0 0 0 249.648 20.04 A 6.858 6.858 0 0 1 249.687 20.186 Q 249.748 20.426 249.748 20.52 L 250.108 20.84 A 71.269 71.269 0 0 0 250.565 20.867 Q 250.746 20.877 250.912 20.886 A 40.346 40.346 0 0 0 251.228 20.9 A 26.635 26.635 0 0 0 251.571 20.912 Q 251.707 20.916 251.831 20.918 A 15.084 15.084 0 0 0 252.068 20.92 Q 253.028 20.92 254.148 20.86 Q 255.268 20.8 256.628 20.64 A 0.241 0.241 0 0 1 256.723 20.809 Q 256.734 20.893 256.704 21.005 A 0.939 0.939 0 0 1 256.688 21.06 Q 256.588 21.36 256.588 21.4 Q 256.588 21.64 256.908 21.68 Q 257.468 21.56 257.708 21.56 Q 257.936 21.56 258.056 21.741 A 0.511 0.511 0 0 1 258.068 21.76 A 1.654 1.654 0 0 1 257.997 21.974 Q 257.908 22.195 257.737 22.485 A 6.888 6.888 0 0 1 257.668 22.6 Q 257.419 23.004 257.339 23.263 A 0.907 0.907 0 0 0 257.308 23.4 L 256.348 24.2 Q 256.348 24.305 256.56 24.515 A 2.84 2.84 0 0 0 256.628 24.58 A 1.003 1.003 0 0 1 256.731 24.69 Q 256.891 24.891 256.828 25.08 L 255.388 25.84 Q 255.388 26.04 255.708 26.22 Q 256.028 26.4 255.828 26.72 A 3.357 3.357 0 0 1 255.083 27.168 A 3.881 3.881 0 0 1 254.908 27.24 A 2.545 2.545 0 0 1 254.487 27.358 Q 254.071 27.44 253.508 27.44 A 8.946 8.946 0 0 1 252.786 27.41 A 11.058 11.058 0 0 1 252.308 27.36 A 90.202 90.202 0 0 0 251.736 27.292 Q 250.661 27.168 250.309 27.16 A 1.984 1.984 0 0 0 250.268 27.16 L 249.788 27.16 Q 249.468 27.24 249.268 27.26 A 2.414 2.414 0 0 1 249.161 27.268 Q 248.989 27.277 248.674 27.279 A 29.761 29.761 0 0 1 248.468 27.28 Q 248.198 27.28 247.614 27.243 A 41.211 41.211 0 0 1 247.568 27.24 Q 247.093 27.209 246.794 27.202 A 6.985 6.985 0 0 0 246.628 27.2 A 6.165 6.165 0 0 0 246.129 27.219 Q 245.874 27.24 245.65 27.283 A 3.592 3.592 0 0 0 245.568 27.3 A 2.667 2.667 0 0 0 244.875 27.559 A 3.177 3.177 0 0 0 244.668 27.68 A 0.696 0.696 0 0 1 244.563 27.692 Q 244.398 27.7 244.188 27.64 Q 243.512 27.462 243.342 27.442 A 0.313 0.313 0 0 0 243.308 27.44 A 0.58 0.58 0 0 0 242.843 27.66 A 0.899 0.899 0 0 0 242.748 27.8 A 2.164 2.164 0 0 1 242.323 27.727 A 1.603 1.603 0 0 1 241.868 27.52 A 3.002 3.002 0 0 1 241.39 27.133 Q 241.178 26.925 240.973 26.657 A 5.993 5.993 0 0 1 240.788 26.4 A 16.578 16.578 0 0 1 240.534 26.252 Q 240.178 26.041 240.028 25.92 A 1.147 1.147 0 0 1 239.817 25.733 A 0.733 0.733 0 0 1 239.628 25.24 A 17.047 17.047 0 0 1 239.643 24.565 Q 239.674 23.792 239.768 22.699 A 81.074 81.074 0 0 1 239.868 21.64 Q 240.103 19.284 240.108 18.122 A 11.552 11.552 0 0 0 240.108 18.08 Q 240.108 15.44 239.748 12.92 Q 239.748 11.84 239.648 10.04 A 257.155 257.155 0 0 1 239.614 9.416 Q 239.555 8.31 239.549 7.957 A 4.238 4.238 0 0 1 239.548 7.88 A 2.9 2.9 0 0 0 239.684 7.565 Q 239.764 7.342 239.788 7.14 A 4.734 4.734 0 0 0 239.809 6.906 Q 239.828 6.625 239.828 6.24 A 8.297 8.297 0 0 0 239.821 5.933 Q 239.803 5.43 239.728 4.68 A 67.617 67.617 0 0 1 239.694 4.332 Q 239.628 3.635 239.628 3.44 L 239.628 2.96 Q 239.691 2.707 239.704 2.554 A 0.865 0.865 0 0 0 239.708 2.48 L 239.948 2.24 A 0.754 0.754 0 0 1 240.023 2.236 Q 240.35 2.236 240.844 2.497 A 4.629 4.629 0 0 1 241.028 2.6 A 8.243 8.243 0 0 0 241.267 2.736 Q 241.647 2.943 241.849 2.988 A 0.461 0.461 0 0 0 241.948 3 A 0.582 0.582 0 0 0 242.427 2.763 A 0.995 0.995 0 0 0 242.548 2.56 L 242.708 1.8 Q 243.348 1.8 243.528 2.74 Q 243.619 3.219 243.831 3.485 A 0.839 0.839 0 0 0 244.348 3.8 Q 244.96 3.8 246.042 3.706 A 54.048 54.048 0 0 0 246.748 3.64 Q 247.973 3.518 248.729 3.489 A 11.132 11.132 0 0 1 249.148 3.48 Q 249.576 3.48 249.842 3.507 A 2.68 2.68 0 0 1 249.948 3.52 A 3.338 3.338 0 0 0 250.25 3.533 Q 250.561 3.533 250.908 3.48 A 245.864 245.864 0 0 1 251.285 3.424 Q 252.523 3.24 252.628 3.24 A 2.188 2.188 0 0 1 253.253 3.325 A 1.742 1.742 0 0 1 253.948 3.72 Q 254.308 3.64 255.268 3.58 A 6.012 6.012 0 0 0 255.77 3.529 Q 256.363 3.441 256.708 3.24 A 1.686 1.686 0 0 1 256.798 3.228 Q 257.055 3.203 257.186 3.281 A 0.262 0.262 0 0 1 257.308 3.44 A 0.397 0.397 0 0 1 257.32 3.537 Q 257.32 3.786 257.015 4.08 A 2.252 2.252 0 0 1 256.928 4.16 A 6.347 6.347 0 0 0 256.771 4.3 Q 256.485 4.566 256.469 4.668 A 0.074 0.074 0 0 0 256.468 4.68 Q 256.468 4.822 256.783 5.027 A 2.754 2.754 0 0 0 256.868 5.08 A 0.912 0.912 0 0 1 256.944 5.066 Q 257.241 5.026 257.348 5.24 A 0.475 0.475 0 0 1 257.248 5.525 Q 257.134 5.681 256.888 5.82 A 1.301 1.301 0 0 0 256.703 5.945 Q 256.437 6.163 256.468 6.44 A 0.366 0.366 0 0 0 256.582 6.602 Q 256.726 6.725 257.028 6.8 A 1.057 1.057 0 0 1 257.221 6.867 Q 257.508 7.002 257.508 7.28 Q 257.388 7.479 256.872 7.639 A 4.189 4.189 0 0 1 256.868 7.64 Q 256.432 7.774 256.333 8.021 A 0.4 0.4 0 0 0 256.308 8.12 A 0.62 0.62 0 0 0 256.428 8.231 Q 256.62 8.371 257.008 8.5 Q 257.548 8.68 257.588 9 A 2.613 2.613 0 0 1 257.326 9.087 Q 256.946 9.194 256.328 9.28 A 17.46 17.46 0 0 0 255.929 9.34 Q 255.559 9.4 255.315 9.461 A 2.794 2.794 0 0 0 255.108 9.52 A 0.676 0.676 0 0 0 255.438 9.967 A 1.047 1.047 0 0 0 255.588 10.04 Q 255.988 10.2 256.408 10.3 Q 256.828 10.4 257.348 10.48 Q 257.868 10.56 257.788 11 Q 257.623 11.132 257.363 11.209 A 2.03 2.03 0 0 1 257.248 11.24 Q 256.908 11.32 256.548 11.32 Q 256.228 11.32 255.888 11.28 A 14.302 14.302 0 0 0 255.696 11.259 Q 255.417 11.23 254.939 11.187 A 137.693 137.693 0 0 0 254.628 11.16 A 17.361 17.361 0 0 0 253.998 11.118 Q 253.257 11.081 252.26 11.08 A 53.981 53.981 0 0 0 252.228 11.08 Q 250.988 11.08 249.708 11.2 A 0.556 0.556 0 0 0 249.426 11.536 Q 249.348 11.764 249.388 12.12 Z M 362.348 12.12 L 362.908 12.48 Q 364.776 12.327 366.046 12.232 A 183.608 183.608 0 0 1 366.768 12.18 Q 368.188 12.08 369.948 12.08 A 0.536 0.536 0 0 0 370.008 12.32 Q 370.089 12.482 370.276 12.65 A 1.928 1.928 0 0 0 370.288 12.66 A 2.155 2.155 0 0 1 370.42 12.786 Q 370.548 12.92 370.597 13.031 A 0.32 0.32 0 0 1 370.628 13.16 A 0.58 0.58 0 0 1 370.516 13.278 Q 370.316 13.446 369.848 13.654 A 8.499 8.499 0 0 1 369.648 13.74 Q 369.113 13.962 368.927 14.209 A 0.446 0.446 0 0 0 368.828 14.48 A 0.451 0.451 0 0 0 368.842 14.586 Q 368.868 14.692 368.94 14.833 A 2.277 2.277 0 0 0 368.988 14.92 Q 368.988 15.202 368.681 15.422 A 1.576 1.576 0 0 1 368.488 15.54 A 1.719 1.719 0 0 0 368.282 15.664 Q 367.988 15.874 367.988 16.12 A 0.623 0.623 0 0 0 368.079 16.234 Q 368.233 16.391 368.568 16.58 A 2.057 2.057 0 0 1 368.746 16.692 Q 368.916 16.813 368.984 16.93 A 0.299 0.299 0 0 1 369.028 17.08 A 0.332 0.332 0 0 1 369.016 17.162 Q 368.996 17.239 368.942 17.34 A 1.545 1.545 0 0 1 368.908 17.4 A 0.218 0.218 0 0 0 368.863 17.534 Q 368.863 17.647 368.967 17.792 A 1.044 1.044 0 0 0 368.988 17.82 Q 369.154 18.037 369.154 18.184 A 0.231 0.231 0 0 1 369.148 18.24 L 368.308 18.68 L 362.748 18.88 A 0.638 0.638 0 0 0 362.539 19.216 Q 362.512 19.32 362.508 19.444 A 1.289 1.289 0 0 0 362.508 19.48 A 1.125 1.125 0 0 0 362.517 19.613 Q 362.534 19.755 362.583 19.949 A 4.737 4.737 0 0 0 362.608 20.04 A 6.858 6.858 0 0 1 362.647 20.186 Q 362.708 20.426 362.708 20.52 L 363.068 20.84 A 71.269 71.269 0 0 0 363.525 20.867 Q 363.706 20.877 363.872 20.886 A 40.346 40.346 0 0 0 364.188 20.9 A 26.635 26.635 0 0 0 364.531 20.912 Q 364.667 20.916 364.791 20.918 A 15.084 15.084 0 0 0 365.028 20.92 Q 365.988 20.92 367.108 20.86 Q 368.228 20.8 369.588 20.64 A 0.241 0.241 0 0 1 369.683 20.809 Q 369.694 20.893 369.664 21.005 A 0.939 0.939 0 0 1 369.648 21.06 Q 369.548 21.36 369.548 21.4 Q 369.548 21.64 369.868 21.68 Q 370.428 21.56 370.668 21.56 Q 370.896 21.56 371.016 21.741 A 0.511 0.511 0 0 1 371.028 21.76 A 1.654 1.654 0 0 1 370.957 21.974 Q 370.868 22.195 370.697 22.485 A 6.888 6.888 0 0 1 370.628 22.6 Q 370.379 23.004 370.299 23.263 A 0.907 0.907 0 0 0 370.268 23.4 L 369.308 24.2 Q 369.308 24.305 369.52 24.515 A 2.84 2.84 0 0 0 369.588 24.58 A 1.003 1.003 0 0 1 369.691 24.69 Q 369.851 24.891 369.788 25.08 L 368.348 25.84 Q 368.348 26.04 368.668 26.22 Q 368.988 26.4 368.788 26.72 A 3.357 3.357 0 0 1 368.043 27.168 A 3.881 3.881 0 0 1 367.868 27.24 A 2.545 2.545 0 0 1 367.447 27.358 Q 367.031 27.44 366.468 27.44 A 8.946 8.946 0 0 1 365.746 27.41 A 11.058 11.058 0 0 1 365.268 27.36 A 90.202 90.202 0 0 0 364.696 27.292 Q 363.621 27.168 363.269 27.16 A 1.984 1.984 0 0 0 363.228 27.16 L 362.748 27.16 Q 362.428 27.24 362.228 27.26 A 2.414 2.414 0 0 1 362.121 27.268 Q 361.949 27.277 361.634 27.279 A 29.761 29.761 0 0 1 361.428 27.28 Q 361.158 27.28 360.574 27.243 A 41.211 41.211 0 0 1 360.528 27.24 Q 360.053 27.209 359.754 27.202 A 6.985 6.985 0 0 0 359.588 27.2 A 6.165 6.165 0 0 0 359.089 27.219 Q 358.834 27.24 358.61 27.283 A 3.592 3.592 0 0 0 358.528 27.3 A 2.667 2.667 0 0 0 357.835 27.559 A 3.177 3.177 0 0 0 357.628 27.68 A 0.696 0.696 0 0 1 357.523 27.692 Q 357.358 27.7 357.148 27.64 Q 356.472 27.462 356.302 27.442 A 0.313 0.313 0 0 0 356.268 27.44 A 0.58 0.58 0 0 0 355.803 27.66 A 0.899 0.899 0 0 0 355.708 27.8 A 2.164 2.164 0 0 1 355.283 27.727 A 1.603 1.603 0 0 1 354.828 27.52 A 3.002 3.002 0 0 1 354.35 27.133 Q 354.138 26.925 353.933 26.657 A 5.993 5.993 0 0 1 353.748 26.4 A 16.578 16.578 0 0 1 353.494 26.252 Q 353.138 26.041 352.988 25.92 A 1.147 1.147 0 0 1 352.777 25.733 A 0.733 0.733 0 0 1 352.588 25.24 A 17.047 17.047 0 0 1 352.603 24.565 Q 352.634 23.792 352.728 22.699 A 81.074 81.074 0 0 1 352.828 21.64 Q 353.063 19.284 353.068 18.122 A 11.552 11.552 0 0 0 353.068 18.08 Q 353.068 15.44 352.708 12.92 Q 352.708 11.84 352.608 10.04 A 257.155 257.155 0 0 1 352.574 9.416 Q 352.515 8.31 352.509 7.957 A 4.238 4.238 0 0 1 352.508 7.88 A 2.9 2.9 0 0 0 352.644 7.565 Q 352.724 7.342 352.748 7.14 A 4.734 4.734 0 0 0 352.769 6.906 Q 352.788 6.625 352.788 6.24 A 8.297 8.297 0 0 0 352.781 5.933 Q 352.763 5.43 352.688 4.68 A 67.617 67.617 0 0 1 352.654 4.332 Q 352.588 3.635 352.588 3.44 L 352.588 2.96 Q 352.651 2.707 352.664 2.554 A 0.865 0.865 0 0 0 352.668 2.48 L 352.908 2.24 A 0.754 0.754 0 0 1 352.983 2.236 Q 353.31 2.236 353.804 2.497 A 4.629 4.629 0 0 1 353.988 2.6 A 8.243 8.243 0 0 0 354.227 2.736 Q 354.607 2.943 354.809 2.988 A 0.461 0.461 0 0 0 354.908 3 A 0.582 0.582 0 0 0 355.387 2.763 A 0.995 0.995 0 0 0 355.508 2.56 L 355.668 1.8 Q 356.308 1.8 356.488 2.74 Q 356.579 3.219 356.791 3.485 A 0.839 0.839 0 0 0 357.308 3.8 Q 357.92 3.8 359.002 3.706 A 54.048 54.048 0 0 0 359.708 3.64 Q 360.933 3.518 361.689 3.489 A 11.132 11.132 0 0 1 362.108 3.48 Q 362.536 3.48 362.802 3.507 A 2.68 2.68 0 0 1 362.908 3.52 A 3.338 3.338 0 0 0 363.21 3.533 Q 363.521 3.533 363.868 3.48 A 245.864 245.864 0 0 1 364.245 3.424 Q 365.483 3.24 365.588 3.24 A 2.188 2.188 0 0 1 366.213 3.325 A 1.742 1.742 0 0 1 366.908 3.72 Q 367.268 3.64 368.228 3.58 A 6.012 6.012 0 0 0 368.73 3.529 Q 369.323 3.441 369.668 3.24 A 1.686 1.686 0 0 1 369.758 3.228 Q 370.015 3.203 370.146 3.281 A 0.262 0.262 0 0 1 370.268 3.44 A 0.397 0.397 0 0 1 370.28 3.537 Q 370.28 3.786 369.975 4.08 A 2.252 2.252 0 0 1 369.888 4.16 A 6.347 6.347 0 0 0 369.731 4.3 Q 369.445 4.566 369.429 4.668 A 0.074 0.074 0 0 0 369.428 4.68 Q 369.428 4.822 369.743 5.027 A 2.754 2.754 0 0 0 369.828 5.08 A 0.912 0.912 0 0 1 369.904 5.066 Q 370.201 5.026 370.308 5.24 A 0.475 0.475 0 0 1 370.208 5.525 Q 370.094 5.681 369.848 5.82 A 1.301 1.301 0 0 0 369.663 5.945 Q 369.397 6.163 369.428 6.44 A 0.366 0.366 0 0 0 369.542 6.602 Q 369.686 6.725 369.988 6.8 A 1.057 1.057 0 0 1 370.181 6.867 Q 370.468 7.002 370.468 7.28 Q 370.348 7.479 369.832 7.639 A 4.189 4.189 0 0 1 369.828 7.64 Q 369.392 7.774 369.293 8.021 A 0.4 0.4 0 0 0 369.268 8.12 A 0.62 0.62 0 0 0 369.388 8.231 Q 369.58 8.371 369.968 8.5 Q 370.508 8.68 370.548 9 A 2.613 2.613 0 0 1 370.286 9.087 Q 369.906 9.194 369.288 9.28 A 17.46 17.46 0 0 0 368.889 9.34 Q 368.519 9.4 368.275 9.461 A 2.794 2.794 0 0 0 368.068 9.52 A 0.676 0.676 0 0 0 368.398 9.967 A 1.047 1.047 0 0 0 368.548 10.04 Q 368.948 10.2 369.368 10.3 Q 369.788 10.4 370.308 10.48 Q 370.828 10.56 370.748 11 Q 370.583 11.132 370.323 11.209 A 2.03 2.03 0 0 1 370.208 11.24 Q 369.868 11.32 369.508 11.32 Q 369.188 11.32 368.848 11.28 A 14.302 14.302 0 0 0 368.656 11.259 Q 368.377 11.23 367.899 11.187 A 137.693 137.693 0 0 0 367.588 11.16 A 17.361 17.361 0 0 0 366.958 11.118 Q 366.217 11.081 365.22 11.08 A 53.981 53.981 0 0 0 365.188 11.08 Q 363.948 11.08 362.668 11.2 A 0.556 0.556 0 0 0 362.386 11.536 Q 362.308 11.764 362.348 12.12 Z M 159.508 29.2 L 159.228 29.24 Q 159.305 28.508 159.308 28.147 A 3.446 3.446 0 0 0 159.308 28.12 A 1.095 1.095 0 0 0 159.285 27.89 A 0.814 0.814 0 0 0 159.188 27.64 Q 158.784 27.75 158.616 27.759 A 0.525 0.525 0 0 1 158.588 27.76 Q 158.455 27.76 158.35 27.622 A 0.672 0.672 0 0 1 158.308 27.56 A 0.421 0.421 0 0 1 158.3 27.493 Q 158.293 27.306 158.428 27.02 A 4.329 4.329 0 0 0 158.49 26.882 Q 158.572 26.69 158.585 26.593 A 0.25 0.25 0 0 0 158.588 26.56 A 0.397 0.397 0 0 0 158.506 26.32 Q 158.46 26.258 158.388 26.2 A 1.302 1.302 0 0 0 158.074 26.358 Q 157.947 26.443 157.82 26.563 A 2.734 2.734 0 0 0 157.668 26.72 Q 157.004 27.416 156.69 27.636 A 0.825 0.825 0 0 1 156.548 27.72 L 155.308 27.68 A 1.659 1.659 0 0 1 155.404 27.137 Q 155.48 26.919 155.614 26.69 A 3.437 3.437 0 0 1 155.748 26.48 Q 156.428 25.56 157.108 24.6 Q 158.061 24.257 158.542 23.078 A 4.456 4.456 0 0 0 158.588 22.96 Q 159.253 21.198 159.497 20.854 A 0.667 0.667 0 0 1 159.508 20.84 Q 159.828 19.24 160.148 17.6 Q 162.148 12.8 163.468 7.36 Q 164.468 4.8 166.188 2.32 A 0.509 0.509 0 0 1 166.251 2.312 Q 166.43 2.299 166.731 2.383 A 3.421 3.421 0 0 1 166.788 2.4 Q 167.188 2.52 167.388 2.52 Q 167.588 2.4 167.868 1.96 A 1.091 1.091 0 0 1 167.973 1.819 Q 168.188 1.578 168.445 1.657 A 0.544 0.544 0 0 1 168.508 1.68 A 0.43 0.43 0 0 1 168.568 1.759 Q 168.658 1.905 168.748 2.22 Q 168.824 2.488 168.983 2.618 A 0.518 0.518 0 0 0 169.188 2.72 Q 169.505 2.641 169.902 1.97 A 5.138 5.138 0 0 0 169.908 1.96 A 3.974 3.974 0 0 1 170.065 1.712 Q 170.313 1.355 170.508 1.293 A 0.263 0.263 0 0 1 170.588 1.28 A 0.435 0.435 0 0 1 170.794 1.337 Q 170.983 1.438 171.188 1.72 Q 171.115 1.901 171.043 2.212 A 7.364 7.364 0 0 0 171.028 2.28 Q 170.974 2.52 170.974 2.742 A 1.754 1.754 0 0 0 170.988 2.96 A 0.928 0.928 0 0 0 171.28 3.154 Q 171.401 3.206 171.548 3.237 A 1.884 1.884 0 0 0 171.688 3.26 Q 172.148 3.32 172.548 3.36 A 0.957 0.957 0 0 1 172.672 3.168 A 0.55 0.55 0 0 1 173.108 2.96 Q 173.268 2.96 173.628 3.12 Q 173.918 3.249 174.105 3.274 A 0.629 0.629 0 0 0 174.188 3.28 A 0.515 0.515 0 0 0 174.571 3.11 Q 174.645 3.033 174.708 2.92 A 0.529 0.529 0 0 1 174.969 2.779 A 0.794 0.794 0 0 1 175.148 2.76 Q 175.388 2.76 175.588 2.88 Q 176.188 3.28 176.588 4.04 A 3.041 3.041 0 0 1 176.691 4.278 Q 176.944 4.921 177.448 6.66 A 55.926 55.926 0 0 1 177.774 7.839 Q 178.288 9.77 178.948 12.68 Q 179.508 15.12 180.308 18.96 Q 180.72 20.225 181.076 21.244 A 72.104 72.104 0 0 0 181.388 22.12 Q 182.962 26.422 183.251 27.238 A 10.589 10.589 0 0 1 183.308 27.4 A 1.71 1.71 0 0 1 183.296 27.608 Q 183.251 27.976 183.028 28.04 Q 182.494 28.23 181.761 27.659 A 3.799 3.799 0 0 1 181.688 27.6 A 10.52 10.52 0 0 0 181.414 27.383 Q 180.863 26.96 180.668 26.96 A 0.639 0.639 0 0 0 180.31 27.077 Q 180.096 27.219 179.892 27.535 A 3.009 3.009 0 0 0 179.828 27.64 Q 179.428 27.6 179.128 27 A 2.293 2.293 0 0 0 178.984 26.75 Q 178.743 26.391 178.468 26.36 Q 178.314 26.483 178.278 26.63 A 0.382 0.382 0 0 0 178.268 26.72 Q 178.268 26.81 178.302 26.981 A 4.253 4.253 0 0 0 178.328 27.1 A 0.783 0.783 0 0 1 178.345 27.211 Q 178.361 27.404 178.268 27.56 Q 177.748 27.72 177.228 27.84 A 0.678 0.678 0 0 1 177.038 27.811 Q 176.957 27.788 176.87 27.744 A 1.389 1.389 0 0 1 176.788 27.7 Q 176.565 27.57 176.205 26.993 A 8.323 8.323 0 0 1 176.148 26.9 Q 175.922 26.528 175.671 26.34 A 0.925 0.925 0 0 0 175.268 26.16 Q 175.068 26.28 175.068 26.64 A 14.357 14.357 0 0 1 175.102 26.873 Q 175.148 27.208 175.148 27.36 A 0.227 0.227 0 0 1 175.134 27.44 Q 175.113 27.497 175.057 27.534 A 0.256 0.256 0 0 1 175.048 27.54 A 0.138 0.138 0 0 1 175 27.557 Q 174.912 27.572 174.761 27.505 A 1.28 1.28 0 0 1 174.708 27.48 Q 174.37 27.05 174.068 26.044 A 13.863 13.863 0 0 1 173.888 25.38 A 8.374 8.374 0 0 0 173.657 24.598 Q 173.33 23.674 172.868 23.24 Q 169.708 23.24 167.028 23.52 A 0.657 0.657 0 0 0 166.934 23.665 Q 166.727 24.058 166.253 25.394 A 78.867 78.867 0 0 0 166.028 26.04 Q 165.668 27 165.068 27.48 A 0.803 0.803 0 0 1 164.629 27.703 A 1.146 1.146 0 0 1 164.428 27.72 Q 163.868 27.6 163.588 27.6 A 0.762 0.762 0 0 0 163.326 27.649 Q 163.163 27.709 162.988 27.84 A 0.293 0.293 0 0 1 162.93 27.846 Q 162.756 27.846 162.568 27.64 A 67.573 67.573 0 0 0 162.492 27.557 Q 162.367 27.422 162.323 27.376 A 1.087 1.087 0 0 0 162.308 27.36 A 8.481 8.481 0 0 0 160.861 28.075 A 6.269 6.269 0 0 0 159.508 29.2 Z M 20.268 3.52 L 20.788 3.6 A 0.663 0.663 0 0 1 20.794 3.694 Q 20.794 3.93 20.628 4.18 A 1.485 1.485 0 0 1 20.262 4.556 A 1.874 1.874 0 0 1 20.068 4.68 Q 19.708 4.88 19.308 5.08 A 0.329 0.329 0 0 0 19.49 5.387 Q 19.627 5.463 19.868 5.48 A 3.032 3.032 0 0 1 20.044 5.497 Q 20.428 5.548 20.428 5.68 Q 20.428 5.758 20.238 6.063 A 6.524 6.524 0 0 1 20.228 6.08 A 1.387 1.387 0 0 1 19.696 6.549 Q 19.247 6.786 18.527 6.852 A 5.557 5.557 0 0 1 18.428 6.86 A 17.377 17.377 0 0 0 17.953 6.901 Q 17 6.998 16.708 7.16 Q 16.676 7.255 16.744 7.374 A 0.627 0.627 0 0 0 16.788 7.44 A 0.388 0.388 0 0 0 17.034 7.59 A 0.6 0.6 0 0 0 17.148 7.6 Q 18.228 7.6 19.448 7.8 Q 20.668 8 21.828 8.2 Q 21.948 8.32 21.828 8.72 A 2.459 2.459 0 0 1 21.232 9.03 A 2.223 2.223 0 0 1 20.988 9.1 A 3.366 3.366 0 0 1 20.652 9.157 Q 20.3 9.2 19.828 9.2 L 18.628 9.2 Q 17.868 9.2 17.508 9.28 A 0.828 0.828 0 0 0 17.389 9.365 Q 17.288 9.454 17.248 9.56 A 0.231 0.231 0 0 0 17.237 9.595 Q 17.215 9.708 17.337 9.776 A 0.441 0.441 0 0 0 17.388 9.8 A 0.525 0.525 0 0 0 17.494 9.879 Q 17.673 9.984 18.046 10.08 A 5.6 5.6 0 0 0 18.128 10.1 A 2.381 2.381 0 0 1 18.391 10.179 Q 18.748 10.31 18.868 10.52 A 2.16 2.16 0 0 1 18.343 10.911 A 1.924 1.924 0 0 1 17.968 11.06 A 3.41 3.41 0 0 1 17.525 11.151 Q 17.306 11.181 17.057 11.193 A 6.679 6.679 0 0 1 16.748 11.2 Q 16.418 11.2 15.669 11.146 A 56.626 56.626 0 0 1 15.328 11.12 A 553.033 553.033 0 0 0 15.088 11.101 Q 14.389 11.047 14.284 11.041 A 0.381 0.381 0 0 0 14.268 11.04 A 1.905 1.905 0 0 0 14.057 11.482 Q 13.901 11.94 13.849 12.637 A 9.2 9.2 0 0 0 13.828 13.06 Q 13.788 14.48 13.708 14.76 A 16.117 16.117 0 0 1 13.774 15.4 Q 13.802 15.736 13.822 16.112 A 27.074 27.074 0 0 1 13.828 16.22 Q 13.868 17.04 13.868 17.84 Q 13.868 18.554 13.828 20.014 A 222.889 222.889 0 0 1 13.828 20.04 Q 13.797 21.173 13.79 21.908 A 42.463 42.463 0 0 0 13.788 22.32 Q 13.788 22.64 13.828 23.38 Q 13.868 24.12 13.868 24.48 Q 13.868 24.88 13.428 24.98 Q 13.048 25.066 12.937 25.167 A 0.177 0.177 0 0 0 12.908 25.2 A 200.502 200.502 0 0 1 12.645 25.649 Q 12.282 26.268 12.073 26.612 A 32.213 32.213 0 0 1 12.068 26.62 A 3.212 3.212 0 0 1 11.64 27.172 A 4.055 4.055 0 0 1 11.308 27.48 A 1.196 1.196 0 0 1 10.701 26.987 A 1.588 1.588 0 0 1 10.628 26.86 Q 10.446 26.512 10.288 26.016 A 9.164 9.164 0 0 1 10.188 25.68 Q 9.548 24.88 8.868 24.44 Q 8.188 24 7.388 24 L 6.908 24.16 Q 6.373 24.374 6.093 24.334 A 0.488 0.488 0 0 1 6.028 24.32 A 14.304 14.304 0 0 1 5.839 24.11 Q 5.609 23.849 5.506 23.699 A 1.162 1.162 0 0 1 5.468 23.64 A 1.522 1.522 0 0 1 5.356 23.433 Q 5.217 23.113 5.308 22.84 L 5.508 16.68 Q 5.508 15.56 5.388 14.4 Q 5.048 11.153 5.029 10.65 A 1.363 1.363 0 0 1 5.028 10.6 L 4.788 10.4 Q 4.282 10.4 3.45 10.482 A 30.197 30.197 0 0 0 3.268 10.5 A 71.184 71.184 0 0 1 2.934 10.534 Q 2.27 10.6 2.108 10.6 Q 1.514 10.6 1.057 10.493 A 3.091 3.091 0 0 1 0.928 10.46 A 1.998 1.998 0 0 1 0.142 10.027 A 2.414 2.414 0 0 1 0.028 9.92 A 0.555 0.555 0 0 1 0.005 9.829 Q -0.04 9.531 0.308 9.34 Q 0.624 9.166 0.74 9.08 A 0.443 0.443 0 0 0 0.788 9.04 Q 0.708 8.44 0.708 8.16 Q 0.708 7.543 1.178 7.455 A 0.922 0.922 0 0 1 1.348 7.44 Q 1.955 7.28 2.128 7.12 A 0.228 0.228 0 0 0 2.188 7.04 A 0.733 0.733 0 0 0 1.954 6.776 Q 1.732 6.615 1.344 6.519 A 3.513 3.513 0 0 0 1.168 6.48 Q 0.512 6.352 0.227 6.096 A 0.722 0.722 0 0 1 0.108 5.96 A 0.468 0.468 0 0 1 0.068 5.811 Q 0.043 5.532 0.383 5.241 A 1.814 1.814 0 0 1 0.408 5.22 A 3.596 3.596 0 0 0 0.576 5.073 Q 0.819 4.845 0.86 4.696 A 0.214 0.214 0 0 0 0.868 4.64 A 0.92 0.92 0 0 0 0.859 4.508 Q 0.838 4.364 0.768 4.28 Q 0.668 4.16 0.628 4.02 A 1.57 1.57 0 0 1 0.608 3.946 Q 0.588 3.858 0.588 3.8 A 0.797 0.797 0 0 1 0.601 3.663 Q 0.642 3.435 0.8 3.057 A 6.691 6.691 0 0 1 0.808 3.04 A 5.379 5.379 0 0 0 0.904 2.798 Q 1.028 2.46 1.028 2.28 L 1.348 2.08 L 12.948 2.24 L 13.588 2.24 L 14.188 2.24 A 75.589 75.589 0 0 0 14.969 2.236 Q 16.053 2.225 16.608 2.18 A 12.646 12.646 0 0 0 17.204 2.116 Q 17.748 2.046 18.428 1.92 A 29.479 29.479 0 0 0 18.771 1.956 Q 19.263 2.005 19.608 2.02 A 1.569 1.569 0 0 1 20.007 2.087 A 1.246 1.246 0 0 1 20.388 2.28 Q 20.188 2.76 19.988 3.2 A 0.272 0.272 0 0 0 20.074 3.397 Q 20.114 3.438 20.174 3.473 A 0.821 0.821 0 0 0 20.268 3.52 Z M 306.468 3.52 L 306.988 3.6 A 0.663 0.663 0 0 1 306.994 3.694 Q 306.994 3.93 306.828 4.18 A 1.485 1.485 0 0 1 306.462 4.556 A 1.874 1.874 0 0 1 306.268 4.68 Q 305.908 4.88 305.508 5.08 A 0.329 0.329 0 0 0 305.69 5.387 Q 305.827 5.463 306.068 5.48 A 3.032 3.032 0 0 1 306.244 5.497 Q 306.628 5.548 306.628 5.68 Q 306.628 5.758 306.438 6.063 A 6.524 6.524 0 0 1 306.428 6.08 A 1.387 1.387 0 0 1 305.896 6.549 Q 305.447 6.786 304.727 6.852 A 5.557 5.557 0 0 1 304.628 6.86 A 17.377 17.377 0 0 0 304.153 6.901 Q 303.2 6.998 302.908 7.16 Q 302.876 7.255 302.944 7.374 A 0.627 0.627 0 0 0 302.988 7.44 A 0.388 0.388 0 0 0 303.234 7.59 A 0.6 0.6 0 0 0 303.348 7.6 Q 304.428 7.6 305.648 7.8 Q 306.868 8 308.028 8.2 Q 308.148 8.32 308.028 8.72 A 2.459 2.459 0 0 1 307.432 9.03 A 2.223 2.223 0 0 1 307.188 9.1 A 3.366 3.366 0 0 1 306.852 9.157 Q 306.5 9.2 306.028 9.2 L 304.828 9.2 Q 304.068 9.2 303.708 9.28 A 0.828 0.828 0 0 0 303.589 9.365 Q 303.488 9.454 303.448 9.56 A 0.231 0.231 0 0 0 303.437 9.595 Q 303.415 9.708 303.537 9.776 A 0.441 0.441 0 0 0 303.588 9.8 A 0.525 0.525 0 0 0 303.694 9.879 Q 303.873 9.984 304.246 10.08 A 5.6 5.6 0 0 0 304.328 10.1 A 2.381 2.381 0 0 1 304.591 10.179 Q 304.948 10.31 305.068 10.52 A 2.16 2.16 0 0 1 304.543 10.911 A 1.924 1.924 0 0 1 304.168 11.06 A 3.41 3.41 0 0 1 303.725 11.151 Q 303.506 11.181 303.257 11.193 A 6.679 6.679 0 0 1 302.948 11.2 Q 302.618 11.2 301.869 11.146 A 56.626 56.626 0 0 1 301.528 11.12 A 553.033 553.033 0 0 0 301.288 11.101 Q 300.589 11.047 300.484 11.041 A 0.381 0.381 0 0 0 300.468 11.04 A 1.905 1.905 0 0 0 300.257 11.482 Q 300.101 11.94 300.049 12.637 A 9.2 9.2 0 0 0 300.028 13.06 Q 299.988 14.48 299.908 14.76 A 16.117 16.117 0 0 1 299.974 15.4 Q 300.002 15.736 300.022 16.112 A 27.074 27.074 0 0 1 300.028 16.22 Q 300.068 17.04 300.068 17.84 Q 300.068 18.554 300.028 20.014 A 222.889 222.889 0 0 1 300.028 20.04 Q 299.997 21.173 299.99 21.908 A 42.463 42.463 0 0 0 299.988 22.32 Q 299.988 22.64 300.028 23.38 Q 300.068 24.12 300.068 24.48 Q 300.068 24.88 299.628 24.98 Q 299.248 25.066 299.137 25.167 A 0.177 0.177 0 0 0 299.108 25.2 A 200.502 200.502 0 0 1 298.845 25.649 Q 298.482 26.268 298.273 26.612 A 32.213 32.213 0 0 1 298.268 26.62 A 3.212 3.212 0 0 1 297.84 27.172 A 4.055 4.055 0 0 1 297.508 27.48 A 1.196 1.196 0 0 1 296.901 26.987 A 1.588 1.588 0 0 1 296.828 26.86 Q 296.646 26.512 296.488 26.016 A 9.164 9.164 0 0 1 296.388 25.68 Q 295.748 24.88 295.068 24.44 Q 294.388 24 293.588 24 L 293.108 24.16 Q 292.573 24.374 292.293 24.334 A 0.488 0.488 0 0 1 292.228 24.32 A 14.304 14.304 0 0 1 292.039 24.11 Q 291.809 23.849 291.706 23.699 A 1.162 1.162 0 0 1 291.668 23.64 A 1.522 1.522 0 0 1 291.556 23.433 Q 291.417 23.113 291.508 22.84 L 291.708 16.68 Q 291.708 15.56 291.588 14.4 Q 291.248 11.153 291.229 10.65 A 1.363 1.363 0 0 1 291.228 10.6 L 290.988 10.4 Q 290.482 10.4 289.65 10.482 A 30.197 30.197 0 0 0 289.468 10.5 A 71.184 71.184 0 0 1 289.134 10.534 Q 288.47 10.6 288.308 10.6 Q 287.714 10.6 287.257 10.493 A 3.091 3.091 0 0 1 287.128 10.46 A 1.998 1.998 0 0 1 286.342 10.027 A 2.414 2.414 0 0 1 286.228 9.92 A 0.555 0.555 0 0 1 286.205 9.829 Q 286.16 9.531 286.508 9.34 Q 286.824 9.166 286.94 9.08 A 0.443 0.443 0 0 0 286.988 9.04 Q 286.908 8.44 286.908 8.16 Q 286.908 7.543 287.378 7.455 A 0.922 0.922 0 0 1 287.548 7.44 Q 288.155 7.28 288.328 7.12 A 0.228 0.228 0 0 0 288.388 7.04 A 0.733 0.733 0 0 0 288.154 6.776 Q 287.932 6.615 287.544 6.519 A 3.513 3.513 0 0 0 287.368 6.48 Q 286.712 6.352 286.427 6.096 A 0.722 0.722 0 0 1 286.308 5.96 A 0.468 0.468 0 0 1 286.268 5.811 Q 286.243 5.532 286.583 5.241 A 1.814 1.814 0 0 1 286.608 5.22 A 3.596 3.596 0 0 0 286.776 5.073 Q 287.019 4.845 287.06 4.696 A 0.214 0.214 0 0 0 287.068 4.64 A 0.92 0.92 0 0 0 287.059 4.508 Q 287.038 4.364 286.968 4.28 Q 286.868 4.16 286.828 4.02 A 1.57 1.57 0 0 1 286.808 3.946 Q 286.788 3.858 286.788 3.8 A 0.797 0.797 0 0 1 286.801 3.663 Q 286.842 3.435 287 3.057 A 6.691 6.691 0 0 1 287.008 3.04 A 5.379 5.379 0 0 0 287.104 2.798 Q 287.228 2.46 287.228 2.28 L 287.548 2.08 L 299.148 2.24 L 299.788 2.24 L 300.388 2.24 A 75.589 75.589 0 0 0 301.169 2.236 Q 302.253 2.225 302.808 2.18 A 12.646 12.646 0 0 0 303.404 2.116 Q 303.948 2.046 304.628 1.92 A 29.479 29.479 0 0 0 304.971 1.956 Q 305.463 2.005 305.808 2.02 A 1.569 1.569 0 0 1 306.207 2.087 A 1.246 1.246 0 0 1 306.588 2.28 Q 306.388 2.76 306.188 3.2 A 0.272 0.272 0 0 0 306.274 3.397 Q 306.314 3.438 306.374 3.473 A 0.821 0.821 0 0 0 306.468 3.52 Z M 63.508 13.12 L 60.948 16.28 A 3.862 3.862 0 0 0 61.154 17.505 A 4.992 4.992 0 0 0 61.428 18.16 Q 61.428 18.195 62.215 19.47 A 304.014 304.014 0 0 0 62.468 19.88 L 64.748 23.68 L 64.908 24.64 Q 64.388 24.8 63.708 24.8 Q 63.188 24.8 62.688 24.7 Q 62.188 24.6 61.548 24.36 A 0.373 0.373 0 0 0 61.299 24.507 Q 61.195 24.635 61.133 24.873 A 2.037 2.037 0 0 0 61.108 24.98 A 1.114 1.114 0 0 1 61.032 25.22 Q 60.875 25.56 60.508 25.56 Q 59.588 25.32 58.708 25.08 Q 58.348 25.08 58.028 25.24 A 3.02 3.02 0 0 0 57.936 25.336 Q 57.889 25.387 57.852 25.433 A 1.225 1.225 0 0 0 57.788 25.52 Q 57.538 25.77 57.361 25.873 A 0.703 0.703 0 0 1 57.268 25.92 Q 56.745 25.513 56.243 24.768 A 9.232 9.232 0 0 1 55.868 24.16 A 51.565 51.565 0 0 0 55.557 23.631 Q 54.928 22.573 54.668 22.28 A 0.518 0.518 0 0 0 54.422 22.358 Q 54.227 22.487 54.194 22.819 A 1.447 1.447 0 0 0 54.188 22.96 L 54.188 23.6 Q 54.188 23.93 54.133 24.042 A 0.139 0.139 0 0 1 54.108 24.08 A 0.201 0.201 0 0 0 54.073 24.133 Q 54.026 24.229 53.978 24.457 A 5.256 5.256 0 0 0 53.948 24.62 Q 53.871 25.059 53.503 24.824 A 1.024 1.024 0 0 1 53.468 24.8 Q 53.41 24.742 53.394 24.631 A 0.643 0.643 0 0 1 53.388 24.54 L 53.388 24.24 Q 53.388 23.92 53.188 23.8 Q 52.997 23.99 52.662 24 A 1.255 1.255 0 0 1 52.628 24 Q 52.419 24 52.143 23.955 A 5.337 5.337 0 0 1 51.948 23.92 A 0.763 0.763 0 0 0 51.747 24.028 Q 51.438 24.251 51.008 24.86 Q 50.496 25.584 50.155 25.669 A 0.361 0.361 0 0 1 50.068 25.68 Q 49.816 25.68 49.5 25.389 A 2.384 2.384 0 0 1 49.428 25.32 A 0.266 0.266 0 0 1 49.383 25.288 Q 49.247 25.172 48.788 24.68 A 2.533 2.533 0 0 0 48.601 24.51 Q 48.403 24.348 48.239 24.3 A 0.469 0.469 0 0 0 48.108 24.28 L 47.788 24.36 L 46.308 25.08 L 46.148 24.8 A 18.599 18.599 0 0 1 46.029 23.502 Q 45.99 22.837 45.988 22.099 A 30.119 30.119 0 0 1 45.988 22 A 54.738 54.738 0 0 1 45.991 21.38 Q 46.003 20.39 46.048 19.04 A 4005.533 4005.533 0 0 0 46.062 18.617 Q 46.101 17.437 46.107 17.239 A 2.546 2.546 0 0 0 46.108 17.2 Q 45.948 16.52 45.948 15.6 Q 45.948 15.084 46.016 13.941 A 92.159 92.159 0 0 1 46.028 13.74 A 291.609 291.609 0 0 0 46.046 13.433 Q 46.108 12.42 46.108 12.28 L 46.108 11.24 Q 45.997 10.798 45.955 10.593 A 4.166 4.166 0 0 1 45.948 10.56 Q 46.028 9.84 46.028 9.52 A 7.581 7.581 0 0 0 46.015 9.109 Q 45.993 8.704 45.931 8.143 A 35.124 35.124 0 0 0 45.868 7.6 Q 45.738 6.564 45.714 5.947 A 6.721 6.721 0 0 1 45.708 5.68 A 6.219 6.219 0 0 1 45.785 4.675 A 4.695 4.695 0 0 1 46.028 3.76 Q 46.028 3.408 45.97 2.846 A 17.978 17.978 0 0 0 45.968 2.82 A 137.672 137.672 0 0 1 45.954 2.683 Q 45.912 2.275 45.908 2.21 A 0.187 0.187 0 0 1 45.908 2.2 Q 45.908 1.88 45.948 1.68 A 1.54 1.54 0 0 1 46.241 1.384 A 1.083 1.083 0 0 1 46.908 1.16 Q 47.14 1.16 47.436 1.266 A 2.99 2.99 0 0 1 47.668 1.36 Q 48.545 1.75 48.921 1.823 A 0.79 0.79 0 0 0 49.068 1.84 A 0.416 0.416 0 0 0 49.154 1.806 Q 49.312 1.725 49.588 1.48 A 1.127 1.127 0 0 1 49.729 1.372 Q 50.003 1.197 50.254 1.313 A 0.563 0.563 0 0 1 50.268 1.32 Q 50.628 1.8 51.028 2.24 A 1.369 1.369 0 0 0 51.198 2.251 Q 51.734 2.251 52.242 1.822 A 2.592 2.592 0 0 0 52.268 1.8 Q 52.268 1.22 52.383 1.018 A 0.315 0.315 0 0 1 52.408 0.98 Q 52.548 0.8 52.908 0.8 Q 53.228 0.32 53.908 0.32 A 3.362 3.362 0 0 1 54.049 0.323 Q 54.16 0.328 54.248 0.34 Q 54.385 0.36 54.697 0.476 A 7.542 7.542 0 0 1 54.708 0.48 L 58.308 2.64 Q 60.108 4.04 61.908 5.4 Q 63.068 6.32 63.928 7.46 A 6.363 6.363 0 0 1 64.572 8.497 A 4.69 4.69 0 0 1 64.988 9.76 A 1.987 1.987 0 0 0 64.666 10.155 Q 64.4 10.572 64.194 11.236 A 7.999 7.999 0 0 0 64.128 11.46 Q 63.793 12.66 63.517 13.105 A 1.53 1.53 0 0 1 63.508 13.12 Z M 349.708 13.12 L 347.148 16.28 A 3.862 3.862 0 0 0 347.354 17.505 A 4.992 4.992 0 0 0 347.628 18.16 Q 347.628 18.195 348.415 19.47 A 304.014 304.014 0 0 0 348.668 19.88 L 350.948 23.68 L 351.108 24.64 Q 350.588 24.8 349.908 24.8 Q 349.388 24.8 348.888 24.7 Q 348.388 24.6 347.748 24.36 A 0.373 0.373 0 0 0 347.499 24.507 Q 347.395 24.635 347.333 24.873 A 2.037 2.037 0 0 0 347.308 24.98 A 1.114 1.114 0 0 1 347.232 25.22 Q 347.075 25.56 346.708 25.56 Q 345.788 25.32 344.908 25.08 Q 344.548 25.08 344.228 25.24 A 3.02 3.02 0 0 0 344.136 25.336 Q 344.089 25.387 344.052 25.433 A 1.225 1.225 0 0 0 343.988 25.52 Q 343.738 25.77 343.561 25.873 A 0.703 0.703 0 0 1 343.468 25.92 Q 342.945 25.513 342.443 24.768 A 9.232 9.232 0 0 1 342.068 24.16 A 51.565 51.565 0 0 0 341.757 23.631 Q 341.128 22.573 340.868 22.28 A 0.518 0.518 0 0 0 340.622 22.358 Q 340.427 22.487 340.394 22.819 A 1.447 1.447 0 0 0 340.388 22.96 L 340.388 23.6 Q 340.388 23.93 340.333 24.042 A 0.139 0.139 0 0 1 340.308 24.08 A 0.201 0.201 0 0 0 340.273 24.133 Q 340.226 24.229 340.178 24.457 A 5.256 5.256 0 0 0 340.148 24.62 Q 340.071 25.059 339.703 24.824 A 1.024 1.024 0 0 1 339.668 24.8 Q 339.61 24.742 339.594 24.631 A 0.643 0.643 0 0 1 339.588 24.54 L 339.588 24.24 Q 339.588 23.92 339.388 23.8 Q 339.197 23.99 338.862 24 A 1.255 1.255 0 0 1 338.828 24 Q 338.619 24 338.343 23.955 A 5.337 5.337 0 0 1 338.148 23.92 A 0.763 0.763 0 0 0 337.947 24.028 Q 337.638 24.251 337.208 24.86 Q 336.696 25.584 336.355 25.669 A 0.361 0.361 0 0 1 336.268 25.68 Q 336.016 25.68 335.7 25.389 A 2.384 2.384 0 0 1 335.628 25.32 A 0.266 0.266 0 0 1 335.583 25.288 Q 335.447 25.172 334.988 24.68 A 2.533 2.533 0 0 0 334.801 24.51 Q 334.603 24.348 334.439 24.3 A 0.469 0.469 0 0 0 334.308 24.28 L 333.988 24.36 L 332.508 25.08 L 332.348 24.8 A 18.599 18.599 0 0 1 332.229 23.502 Q 332.19 22.837 332.188 22.099 A 30.119 30.119 0 0 1 332.188 22 A 54.738 54.738 0 0 1 332.191 21.38 Q 332.203 20.39 332.248 19.04 A 4005.533 4005.533 0 0 0 332.262 18.617 Q 332.301 17.437 332.307 17.239 A 2.546 2.546 0 0 0 332.308 17.2 Q 332.148 16.52 332.148 15.6 Q 332.148 15.084 332.216 13.941 A 92.159 92.159 0 0 1 332.228 13.74 A 291.609 291.609 0 0 0 332.246 13.433 Q 332.308 12.42 332.308 12.28 L 332.308 11.24 Q 332.197 10.798 332.155 10.593 A 4.166 4.166 0 0 1 332.148 10.56 Q 332.228 9.84 332.228 9.52 A 7.581 7.581 0 0 0 332.215 9.109 Q 332.193 8.704 332.131 8.143 A 35.124 35.124 0 0 0 332.068 7.6 Q 331.938 6.564 331.914 5.947 A 6.721 6.721 0 0 1 331.908 5.68 A 6.219 6.219 0 0 1 331.985 4.675 A 4.695 4.695 0 0 1 332.228 3.76 Q 332.228 3.408 332.17 2.846 A 17.978 17.978 0 0 0 332.168 2.82 A 137.672 137.672 0 0 1 332.154 2.683 Q 332.112 2.275 332.108 2.21 A 0.187 0.187 0 0 1 332.108 2.2 Q 332.108 1.88 332.148 1.68 A 1.54 1.54 0 0 1 332.441 1.384 A 1.083 1.083 0 0 1 333.108 1.16 Q 333.34 1.16 333.636 1.266 A 2.99 2.99 0 0 1 333.868 1.36 Q 334.745 1.75 335.121 1.823 A 0.79 0.79 0 0 0 335.268 1.84 A 0.416 0.416 0 0 0 335.354 1.806 Q 335.512 1.725 335.788 1.48 A 1.127 1.127 0 0 1 335.929 1.372 Q 336.203 1.197 336.454 1.313 A 0.563 0.563 0 0 1 336.468 1.32 Q 336.828 1.8 337.228 2.24 A 1.369 1.369 0 0 0 337.398 2.251 Q 337.934 2.251 338.442 1.822 A 2.592 2.592 0 0 0 338.468 1.8 Q 338.468 1.22 338.583 1.018 A 0.315 0.315 0 0 1 338.608 0.98 Q 338.748 0.8 339.108 0.8 Q 339.428 0.32 340.108 0.32 A 3.362 3.362 0 0 1 340.249 0.323 Q 340.36 0.328 340.448 0.34 Q 340.585 0.36 340.897 0.476 A 7.542 7.542 0 0 1 340.908 0.48 L 344.508 2.64 Q 346.308 4.04 348.108 5.4 Q 349.268 6.32 350.128 7.46 A 6.363 6.363 0 0 1 350.772 8.497 A 4.69 4.69 0 0 1 351.188 9.76 A 1.987 1.987 0 0 0 350.866 10.155 Q 350.6 10.572 350.394 11.236 A 7.999 7.999 0 0 0 350.328 11.46 Q 349.993 12.66 349.717 13.105 A 1.53 1.53 0 0 1 349.708 13.12 Z M 186.828 19.28 L 186.348 11.32 A 0.258 0.258 0 0 0 186.314 11.257 Q 186.249 11.164 186.077 11.012 A 4.705 4.705 0 0 0 185.968 10.92 A 1.044 1.044 0 0 1 185.852 10.81 Q 185.659 10.594 185.74 10.378 A 0.427 0.427 0 0 1 185.748 10.36 A 3.577 3.577 0 0 0 185.906 10.259 Q 185.993 10.2 186.089 10.129 A 7.221 7.221 0 0 0 186.208 10.04 Q 186.468 9.84 186.468 9.56 Q 186.508 9.2 186.068 8.84 Q 185.657 8.504 185.769 8.099 A 0.771 0.771 0 0 1 185.788 8.04 Q 185.268 7.72 185.068 7.52 A 1.036 1.036 0 0 1 184.925 7.38 Q 184.718 7.13 184.813 6.845 A 0.764 0.764 0 0 1 184.868 6.72 A 0.821 0.821 0 0 0 185.049 6.433 Q 185.148 6.18 185.148 5.8 A 11.083 11.083 0 0 1 185.131 5.661 Q 185.109 5.467 185.108 5.374 A 0.825 0.825 0 0 1 185.108 5.36 Q 184.788 5 184.508 4.6 A 0.405 0.405 0 0 1 184.622 4.523 Q 184.812 4.434 185.206 4.403 A 4.37 4.37 0 0 1 185.248 4.4 A 1.694 1.694 0 0 0 185.508 4.363 Q 185.84 4.287 185.968 4.075 A 0.505 0.505 0 0 0 185.988 4.04 A 11.105 11.105 0 0 1 186.949 3.925 Q 187.529 3.88 188.188 3.88 Q 188.814 3.88 190.254 3.948 A 151.783 151.783 0 0 1 190.508 3.96 A 1153.092 1153.092 0 0 0 190.893 3.979 Q 191.973 4.031 192.182 4.039 A 1.67 1.67 0 0 0 192.228 4.04 Q 192.508 3.724 193.235 3.578 A 4.845 4.845 0 0 1 193.448 3.54 A 66.571 66.571 0 0 0 193.661 3.507 Q 194.363 3.395 194.468 3.36 L 195.448 3.36 Q 195.948 3.36 196.468 3.32 Q 198.708 3.32 199.748 3.72 Q 200.788 4.12 201.548 4.92 A 0.568 0.568 0 0 1 201.599 4.918 Q 201.991 4.918 202.318 5.468 A 2.552 2.552 0 0 1 202.348 5.52 Q 202.501 5.827 202.632 5.969 A 0.564 0.564 0 0 0 202.708 6.04 Q 204.708 8.04 206.748 10 A 21.22 21.22 0 0 1 209.287 14.253 A 19.344 19.344 0 0 1 209.708 15.28 Q 209.708 15.56 209.288 15.72 Q 208.868 15.88 208.788 16.12 Q 208.908 16.72 208.908 17.32 A 5.658 5.658 0 0 1 208.513 19.351 Q 208.229 20.092 207.743 20.849 A 10.534 10.534 0 0 1 207.508 21.2 A 14.054 14.054 0 0 1 206.81 22.101 Q 205.935 23.148 204.588 24.44 L 202.508 25.96 A 5.927 5.927 0 0 1 201.491 26.474 Q 200.745 26.76 200.028 26.76 A 1.766 1.766 0 0 1 199.914 26.756 Q 199.747 26.745 199.457 26.706 A 18.876 18.876 0 0 1 199.268 26.68 A 7.643 7.643 0 0 1 198.651 26.872 Q 198 27.048 197.107 27.196 A 25.774 25.774 0 0 1 196.828 27.24 Q 192.708 27.92 192.548 27.96 Q 191.948 27.96 191.368 27.98 Q 190.788 28 190.188 28 A 14.89 14.89 0 0 1 188.899 27.947 Q 188.012 27.87 187.288 27.68 A 4.005 4.005 0 0 1 185.356 26.509 A 4.955 4.955 0 0 1 185.188 26.32 Q 185.341 25.861 186.114 25.677 A 3.231 3.231 0 0 1 186.188 25.66 A 5.997 5.997 0 0 0 186.525 25.578 Q 187.009 25.445 187.187 25.282 A 0.432 0.432 0 0 0 187.228 25.24 A 1.019 1.019 0 0 0 187.028 25.06 Q 186.851 24.936 186.588 24.84 A 7.555 7.555 0 0 1 186.244 24.721 Q 185.718 24.525 185.541 24.344 A 0.348 0.348 0 0 1 185.468 24.24 Q 185.908 24.13 186.263 24.039 A 80.012 80.012 0 0 0 186.568 23.96 A 1.114 1.114 0 0 0 186.811 23.868 A 0.669 0.669 0 0 0 187.148 23.48 A 1.152 1.152 0 0 1 186.219 23.021 A 2.073 2.073 0 0 1 185.968 22.62 A 13.224 13.224 0 0 0 185.793 22.273 Q 185.495 21.708 185.308 21.52 Q 185.308 21.328 185.526 21.032 A 2.904 2.904 0 0 1 185.648 20.88 A 1.231 1.231 0 0 0 185.755 20.734 Q 185.944 20.432 185.799 20.179 A 0.556 0.556 0 0 0 185.788 20.16 A 0.424 0.424 0 0 1 185.897 19.993 Q 186.007 19.884 186.215 19.796 A 1.978 1.978 0 0 1 186.308 19.76 A 1.252 1.252 0 0 0 186.521 19.661 Q 186.634 19.593 186.707 19.509 A 0.547 0.547 0 0 0 186.828 19.28 Z M 86.468 1.36 L 86.628 1.36 Q 86.668 1.72 86.708 1.98 A 0.37 0.37 0 0 0 86.91 2.261 Q 86.978 2.298 87.068 2.32 Q 86.908 2.72 86.788 2.98 A 2.217 2.217 0 0 0 86.683 3.251 A 1.734 1.734 0 0 0 86.628 3.48 Q 87.104 3.48 87.916 2.711 A 7.654 7.654 0 0 0 87.928 2.7 A 6.609 6.609 0 0 1 88.268 2.396 Q 88.797 1.959 89.13 1.923 A 0.541 0.541 0 0 1 89.188 1.92 A 0.99 0.99 0 0 1 89.645 2.038 Q 89.794 2.115 89.944 2.242 A 2.39 2.39 0 0 1 90.148 2.44 A 0.791 0.791 0 0 1 90.422 2.295 Q 90.537 2.259 90.676 2.246 A 1.713 1.713 0 0 1 90.828 2.24 Q 91.407 2.317 91.651 2.32 A 1.554 1.554 0 0 0 91.668 2.32 A 1.275 1.275 0 0 0 91.893 2.301 Q 92.129 2.259 92.268 2.12 Q 92.428 2.16 92.908 2.42 Q 93.179 2.567 93.399 2.567 A 0.57 0.57 0 0 0 93.708 2.48 Q 93.788 2.68 93.708 2.88 Q 93.628 3.08 93.228 3.76 L 92.788 4.2 A 1.498 1.498 0 0 0 92.63 4.384 Q 92.554 4.49 92.512 4.595 A 0.728 0.728 0 0 0 92.468 4.76 A 0.991 0.991 0 0 0 92.585 4.772 Q 92.984 4.79 93.684 4.551 A 8.69 8.69 0 0 0 93.988 4.44 A 8.81 8.81 0 0 1 94.249 4.346 Q 94.68 4.2 94.868 4.2 A 0.615 0.615 0 0 1 94.935 4.204 Q 95.05 4.217 95.261 4.269 A 6.948 6.948 0 0 1 95.308 4.28 A 1.988 1.988 0 0 1 94.775 5.114 Q 94.459 5.403 94.002 5.55 A 2.734 2.734 0 0 1 93.828 5.6 A 0.463 0.463 0 0 1 93.758 5.67 Q 93.486 5.906 92.228 6.8 A 2.909 2.909 0 0 0 91.742 7.225 Q 91.268 7.753 91.268 8.4 Q 91.645 10.778 91.702 11.09 A 1.866 1.866 0 0 0 91.708 11.12 A 4.632 4.632 0 0 0 92.418 12.55 A 4.191 4.191 0 0 0 93.268 13.4 Q 93.708 15.16 93.708 16.96 A 12.119 12.119 0 0 1 93.587 18.716 A 8.771 8.771 0 0 1 93.148 20.48 A 33.848 33.848 0 0 1 90.594 24.327 A 38.29 38.29 0 0 1 89.908 25.2 Q 89.188 25.84 88.228 25.84 A 2.292 2.292 0 0 1 87.827 25.806 A 1.806 1.806 0 0 1 87.508 25.72 L 88.148 24.52 A 0.388 0.388 0 0 0 88.034 24.247 Q 87.984 24.193 87.91 24.146 A 0.926 0.926 0 0 0 87.868 24.12 A 0.882 0.882 0 0 0 87.575 23.958 Q 87.347 23.88 87.028 23.88 A 2.06 2.06 0 0 0 86.748 23.902 Q 86.445 23.944 86.015 24.067 A 10.959 10.959 0 0 0 85.708 24.16 Q 84.828 24.44 84.468 24.44 A 0.975 0.975 0 0 1 84.14 24.387 A 0.832 0.832 0 0 1 83.768 24.12 Q 83.508 23.8 83.508 22.96 A 1.239 1.239 0 0 0 83.183 22.782 A 1.044 1.044 0 0 0 82.828 22.72 A 1.717 1.717 0 0 0 82.56 22.743 Q 82.286 22.787 81.931 22.912 A 5.775 5.775 0 0 0 81.908 22.92 A 25.976 25.976 0 0 1 81.713 22.989 Q 81.325 23.124 81.228 23.14 Q 81.108 23.16 80.788 23.16 A 2.433 2.433 0 0 1 79.963 23.012 A 2.842 2.842 0 0 1 79.828 22.96 Q 79.866 22.806 80.202 22.596 A 2.955 2.955 0 0 1 80.228 22.58 Q 80.588 22.36 80.508 22.12 L 80.268 21.96 Q 79.868 21.96 79.068 22.16 Q 78.436 22.318 78.054 22.351 A 2.163 2.163 0 0 1 77.868 22.36 Q 77.268 22.36 76.788 22.04 L 76.788 21.88 L 81.348 19.8 A 8.834 8.834 0 0 0 82.915 18.665 Q 83.916 17.745 84.395 16.613 A 5.376 5.376 0 0 0 84.588 16.08 A 1.239 1.239 0 0 0 84.596 15.935 Q 84.596 15.485 84.279 14.968 A 3.862 3.862 0 0 0 83.988 14.56 Q 83.234 13.656 83.155 13.177 A 0.714 0.714 0 0 1 83.148 13.12 L 82.148 12.32 L 81.588 8.72 A 574.618 574.618 0 0 1 82.146 7.691 Q 83.869 4.523 84.225 3.982 A 1.651 1.651 0 0 1 84.268 3.92 A 14.994 14.994 0 0 1 86.231 1.586 A 16.76 16.76 0 0 1 86.468 1.36 Z M 143.788 1.96 L 144.508 2.56 A 15.405 15.405 0 0 1 147.367 3.313 A 13.496 13.496 0 0 1 148.468 3.78 A 11.747 11.747 0 0 1 151.083 5.507 A 13.93 13.93 0 0 1 151.828 6.2 Q 152.165 6.659 152.361 6.955 A 7.113 7.113 0 0 1 152.468 7.12 A 2.101 2.101 0 0 1 152.643 7.482 Q 152.791 7.891 152.708 8.28 Q 154.308 13.4 154.308 18.88 Q 153.908 20.56 153.508 22.2 A 7.98 7.98 0 0 1 152.881 23.668 A 5.77 5.77 0 0 1 151.708 25.16 Q 151.456 25.223 151.255 25.236 A 1.603 1.603 0 0 1 151.148 25.24 Q 150.63 25.175 150.321 25.163 A 3.361 3.361 0 0 0 150.188 25.16 A 0.615 0.615 0 0 0 150.12 25.164 Q 150.005 25.177 149.794 25.229 A 6.948 6.948 0 0 0 149.748 25.24 Q 147.468 26.04 145.188 26.52 Q 142.908 27 140.668 27 A 2.717 2.717 0 0 1 140.061 26.731 A 3.196 3.196 0 0 1 139.888 26.62 Q 139.569 26.402 139.209 26.058 A 8.534 8.534 0 0 1 139.068 25.92 A 6.207 6.207 0 0 1 136.333 25.274 A 7.325 7.325 0 0 1 136.108 25.16 A 9.38 9.38 0 0 1 135.415 24.744 Q 134.605 24.213 133.588 23.36 Q 132.588 22.72 131.548 21.56 Q 131.221 21.168 130.28 19.975 A 414.868 414.868 0 0 1 129.828 19.4 Q 129.388 18.8 129.388 17.8 Q 129.426 16.953 129.428 16.551 A 8.582 8.582 0 0 0 129.428 16.52 A 4.944 4.944 0 0 0 129.409 16.078 Q 129.389 15.857 129.348 15.662 A 2.584 2.584 0 0 0 129.348 15.66 Q 129.268 15.28 129.028 14.96 A 32.301 32.301 0 0 1 129.354 12.742 Q 129.548 11.693 129.8 10.8 A 15.173 15.173 0 0 1 130.148 9.72 A 11.897 11.897 0 0 1 132.338 6.033 A 11.285 11.285 0 0 1 133.088 5.26 A 14.565 14.565 0 0 1 136.292 2.959 A 13.318 13.318 0 0 1 137.308 2.48 Q 137.668 2.4 138.008 2.82 A 3.517 3.517 0 0 0 138.15 2.986 Q 138.366 3.221 138.513 3.271 A 0.276 0.276 0 0 0 138.548 3.28 Q 139.007 3.158 139.771 2.871 A 34.421 34.421 0 0 0 140.268 2.68 Q 141.816 2.08 142.79 1.954 A 3.74 3.74 0 0 1 143.268 1.92 Q 143.588 1.92 143.788 1.96 Z M 74.708 12.12 L 74.708 12.96 Q 75.588 15.56 75.988 18.36 A 40.751 40.751 0 0 1 76.386 23.786 A 44.724 44.724 0 0 1 76.388 24.16 A 1.129 1.129 0 0 1 75.926 24.923 A 1.661 1.661 0 0 1 75.748 25.04 Q 75.188 25.36 74.668 25.64 Q 73.948 25.56 73.228 25.44 A 1.474 1.474 0 0 1 72.494 26.482 A 2.079 2.079 0 0 1 72.208 26.62 Q 71.348 26.96 70.548 27.24 Q 70.053 27.316 69.83 26.561 A 2.687 2.687 0 0 1 69.808 26.48 A 4.261 4.261 0 0 0 69.724 26.197 Q 69.587 25.792 69.429 25.681 A 0.209 0.209 0 0 0 69.308 25.64 Q 69.068 25.64 68.668 25.92 A 0.32 0.32 0 0 1 68.645 25.94 Q 68.579 25.994 68.368 26.14 Q 68.108 26.32 67.908 26.24 A 1.038 1.038 0 0 1 67.718 26.113 Q 67.542 25.969 67.333 25.71 A 6.021 6.021 0 0 1 67.128 25.44 Q 66.75 24.914 66.386 24.82 A 0.63 0.63 0 0 0 66.228 24.8 Q 66.228 23.962 66.268 22.267 A 91.89 91.89 0 0 1 66.268 22.26 Q 66.308 20.56 66.308 19.72 L 66.308 19.24 Q 66.308 17.48 66.068 15.72 A 48.35 48.35 0 0 0 66.217 13.715 Q 66.268 12.747 66.268 11.88 Q 66.268 9.84 66.148 8.08 Q 65.912 5.527 65.792 4.285 A 261.233 261.233 0 0 0 65.788 4.24 L 65.908 3.88 A 0.683 0.683 0 0 1 66.344 4.152 Q 66.432 4.265 66.499 4.424 A 2.045 2.045 0 0 1 66.588 4.68 A 2.358 2.358 0 0 0 66.689 4.973 Q 66.878 5.418 67.188 5.48 L 67.908 2.92 Q 68.375 3.02 68.62 3.846 A 4.365 4.365 0 0 1 68.708 4.2 A 3.194 3.194 0 0 0 68.823 4.623 Q 68.991 5.095 69.274 5.265 A 0.674 0.674 0 0 0 69.628 5.36 A 0.615 0.615 0 0 0 69.695 5.356 Q 69.81 5.343 70.021 5.291 A 6.948 6.948 0 0 0 70.068 5.28 A 1.894 1.894 0 0 0 70.231 4.99 Q 70.376 4.677 70.495 4.204 A 8.242 8.242 0 0 0 70.548 3.98 A 39.07 39.07 0 0 1 70.618 3.667 Q 70.763 3.043 70.828 2.88 Q 71.468 2.8 71.788 3.32 A 3.61 3.61 0 0 0 71.774 3.513 Q 71.754 4.015 71.895 4.338 A 0.986 0.986 0 0 0 72.028 4.56 Q 72.348 4.48 72.508 4.12 Q 72.668 3.76 72.828 3.36 Q 72.988 2.96 73.108 2.68 A 1.295 1.295 0 0 1 73.238 2.444 A 0.985 0.985 0 0 1 73.428 2.24 A 0.455 0.455 0 0 1 73.717 2.395 Q 73.849 2.539 73.94 2.812 A 2.283 2.283 0 0 1 73.968 2.9 A 2.254 2.254 0 0 0 74.056 3.153 Q 74.166 3.412 74.314 3.525 A 0.419 0.419 0 0 0 74.468 3.6 A 0.19 0.19 0 0 0 74.528 3.562 Q 74.642 3.465 74.828 3.14 Q 75.062 2.731 75.41 2.796 A 0.576 0.576 0 0 1 75.428 2.8 Q 75.576 3.209 75.587 3.755 A 4.373 4.373 0 0 1 75.588 3.84 Q 75.588 4.207 75.494 4.679 A 7.29 7.29 0 0 1 75.428 4.98 A 33.582 33.582 0 0 0 75.227 5.859 A 28.693 28.693 0 0 0 75.148 6.24 Q 74.908 7.44 74.808 8.94 Q 74.708 10.44 74.708 12.12 Z M 145.188 12.08 L 143.428 10.44 Q 142.388 10.44 141.188 10.76 Q 139.763 11.222 139.08 11.425 A 25 25 0 0 1 139.028 11.44 A 1.894 1.894 0 0 0 138.08 12.357 Q 137.93 12.653 137.839 13.029 A 3.928 3.928 0 0 0 137.828 13.08 Q 137.668 14.56 137.588 15.2 A 46.096 46.096 0 0 0 137.957 15.657 Q 138.477 16.289 138.748 16.56 Q 139.508 17.36 140.188 17.68 Q 140.531 17.646 141.289 17.685 A 25.12 25.12 0 0 1 141.548 17.7 A 613.769 613.769 0 0 0 141.773 17.714 Q 142.405 17.753 142.523 17.759 A 0.732 0.732 0 0 0 142.548 17.76 A 5.486 5.486 0 0 0 143.027 17.74 Q 143.26 17.72 143.46 17.678 A 2.646 2.646 0 0 0 143.688 17.62 A 1.732 1.732 0 0 0 144.345 17.243 A 2.168 2.168 0 0 0 144.508 17.08 Q 145.225 15.306 145.337 14.992 A 1.724 1.724 0 0 0 145.348 14.96 A 5.604 5.604 0 0 0 145.519 14.279 Q 145.583 13.926 145.587 13.603 A 3.447 3.447 0 0 0 145.588 13.56 Q 145.588 12.76 145.188 12.08 Z M 195.948 12.56 L 195.908 19.12 L 196.148 19.48 A 6.212 6.212 0 0 0 196.887 19.269 A 4.854 4.854 0 0 0 197.428 19.04 Q 198.228 18.56 198.588 18.36 A 1.438 1.438 0 0 1 198.683 18.255 Q 198.896 18.038 199.425 17.602 A 50.405 50.405 0 0 1 199.428 17.6 Q 200.247 16.912 200.476 16.331 A 1.305 1.305 0 0 0 200.548 16.08 Q 199.948 15.28 198.748 14.2 Q 196.908 12.56 196.748 12.4 Q 196.56 12.338 196.446 12.324 A 0.494 0.494 0 0 0 196.388 12.32 A 0.662 0.662 0 0 0 196.224 12.339 A 0.407 0.407 0 0 0 195.948 12.56 Z M 53.868 12.56 L 54.028 12.8 Q 54.268 12.76 54.548 12.68 A 1.55 1.55 0 0 1 54.629 12.606 Q 54.833 12.43 55.372 12.03 A 48.837 48.837 0 0 1 55.468 11.96 Q 56.548 11.16 56.548 10.4 A 6.383 6.383 0 0 0 56.086 9.745 Q 55.829 9.427 55.555 9.187 A 3.692 3.692 0 0 0 55.428 9.08 Q 54.708 8.48 53.908 8.32 A 4.829 4.829 0 0 0 53.804 8.886 Q 53.769 9.166 53.756 9.484 A 9.545 9.545 0 0 0 53.748 9.88 Q 53.748 10.56 53.788 11.24 Q 53.828 11.92 53.868 12.56 Z M 340.068 12.56 L 340.228 12.8 Q 340.468 12.76 340.748 12.68 A 1.55 1.55 0 0 1 340.829 12.606 Q 341.033 12.43 341.572 12.03 A 48.837 48.837 0 0 1 341.668 11.96 Q 342.748 11.16 342.748 10.4 A 6.383 6.383 0 0 0 342.286 9.745 Q 342.029 9.427 341.755 9.187 A 3.692 3.692 0 0 0 341.628 9.08 Q 340.908 8.48 340.108 8.32 A 4.829 4.829 0 0 0 340.004 8.886 Q 339.969 9.166 339.956 9.484 A 9.545 9.545 0 0 0 339.948 9.88 Q 339.948 10.56 339.988 11.24 Q 340.028 11.92 340.068 12.56 Z M 170.151 13.153 A 7.024 7.024 0 0 0 170.148 13.16 L 169.348 15.16 A 0.629 0.629 0 0 0 169.282 15.443 Q 169.282 15.517 169.297 15.596 A 1.067 1.067 0 0 0 169.328 15.72 A 0.934 0.934 0 0 0 169.413 15.916 Q 169.51 16.081 169.668 16.16 Q 169.948 16.12 170.488 16.16 Q 170.967 16.196 171.084 16.2 A 0.727 0.727 0 0 0 171.108 16.2 A 2.591 2.591 0 0 0 171.503 16.172 Q 171.712 16.139 171.879 16.07 A 1.089 1.089 0 0 0 172.188 15.88 Q 172.108 15.12 171.988 14.54 A 4.747 4.747 0 0 0 171.825 13.955 Q 171.727 13.671 171.588 13.367 A 7.979 7.979 0 0 0 171.548 13.28 Q 171.39 12.806 171.271 12.488 A 12.082 12.082 0 0 0 171.268 12.48 Q 171.148 12.16 170.748 12.08 Q 170.429 12.438 170.151 13.153 Z M 151.948 19.88 L 151.748 20.04 L 150.068 22.92 A 0.867 0.867 0 0 0 150.312 23.094 A 0.785 0.785 0 0 0 150.528 23.16 Q 150.786 23.2 151.181 23.161 A 5.024 5.024 0 0 0 151.188 23.16 Q 151.427 23.092 151.506 22.848 A 0.717 0.717 0 0 0 151.528 22.76 A 1.75 1.75 0 0 1 151.564 22.604 Q 151.607 22.452 151.67 22.365 A 0.365 0.365 0 0 1 151.708 22.32 L 152.108 20.48 Q 152.108 20.16 151.948 19.88 Z" vector-effect="non-scaling-stroke"/></g></svg>
